<svg width="1307" height="464" viewBox="0 0 1307 464" fill="none" xmlns="http://www.w3.org/2000/svg">
<g clip-path="url(#clip0_1033_11760)">
<rect width="1307" height="464" fill="#FFDB58"/>
<path d="M1266.64 325.14C1267.84 328.602 1271.43 336.68 1275.33 345.959C1282.56 363.167 1274.48 390.239 1269.64 399.594C1261.46 415.401 1243.59 396.411 1243.59 413.264C1243.59 426.698 1207.59 399.206 1207.59 407.159C1207.59 413.264 1201.12 417.275 1187.59 413.264C1179.44 410.848 1168.18 411.427 1159.68 407.159C1151.88 403.24 1141.23 396.639 1132.98 391.196C1124.75 385.77 1107.42 381.857 1097.59 378.264C1087.77 374.671 1086.12 367.636 1075.29 363.964C1065.68 360.705 1079.33 363.497 1018.09 363.964C998.778 364.112 956.272 377.297 956.272 369.808C956.272 358.599 933.725 379.972 921.811 384.22C910.519 388.245 899.511 393.227 884.724 396.052C862.633 400.272 853.046 401.955 843.151 404.15C834.379 406.096 826.333 408.722 805.761 414.214C795.467 416.962 758.608 418.906 732.943 414.592C720.794 412.55 713.927 408.429 700.789 404.219C690.59 400.95 677.735 397.81 667.754 395.316C655.165 392.169 641.481 387.786 630.084 385.886C619.984 384.202 588.643 384.365 567.783 386.367C554.511 387.64 545.44 391.305 536.418 393.463C521.925 396.929 506.521 399.937 492.035 404.496C478.43 408.778 468.79 408.59 458.311 410.172C446.684 411.928 438.583 415.365 397.076 416.195C376.628 416.604 354.686 406.572 341.74 402.35C330.487 398.681 324.136 391.793 315.355 388.122C306.023 384.22 294.948 385.174 286.464 382.949C262.023 376.538 220.445 384.333 208.221 388.864C195.511 393.574 183.231 392.385 173.973 398.022C165.17 403.383 155.423 403.812 146.136 407.118C135.29 410.978 117.778 416.481 104.09 419.886C91.8886 422.921 81.1286 422.22 65.4439 423.868C51.6292 425.32 40.9193 422.745 36.2291 419.319C24.4712 409.589 14.3923 398.622 13.1867 395.152C12.5794 393.404 11.9811 391.682 9.57392 386.437" stroke="#FFDB58" stroke-width="200" stroke-linecap="round"/>
<path d="M1267.64 219.14C1268.84 222.602 1272.43 230.68 1276.33 239.959C1283.56 257.167 1275.48 284.239 1270.64 293.594C1262.46 309.401 1244.59 290.411 1244.59 307.264C1244.59 320.698 1208.59 293.206 1208.59 301.159C1208.59 307.264 1202.12 311.275 1188.59 307.264C1180.44 304.848 1169.18 305.427 1160.68 301.159C1152.88 297.24 1142.23 290.639 1133.98 285.196C1125.75 279.77 1108.42 275.857 1098.59 272.264C1088.77 268.671 1087.12 261.636 1076.29 257.964C1066.68 254.705 1080.33 257.497 1019.09 257.964C999.778 258.112 957.272 271.297 957.272 263.808C957.272 252.599 934.725 273.972 922.811 278.22C911.519 282.245 900.511 287.227 885.724 290.052C863.633 294.272 854.046 295.955 844.151 298.15C835.379 300.096 827.333 302.722 806.761 308.214C796.467 310.962 759.608 312.906 733.943 308.592C721.794 306.55 714.927 302.429 701.789 298.219C691.59 294.95 678.735 291.81 668.754 289.316C656.165 286.169 642.481 281.786 631.084 279.886C620.984 278.202 589.643 278.365 568.783 280.367C555.511 281.64 546.44 285.305 537.418 287.463C522.925 290.929 507.521 293.937 493.035 298.496C479.43 302.778 469.79 302.59 459.311 304.172C447.684 305.928 439.583 309.365 398.076 310.195C377.628 310.604 355.686 300.572 342.74 296.35C331.487 292.681 325.136 285.793 316.355 282.122C307.023 278.22 295.948 279.174 287.464 276.949C263.023 270.538 221.445 278.333 209.221 282.864C196.511 287.574 184.231 286.385 174.973 292.022C166.17 297.383 156.423 297.812 147.136 301.118C136.29 304.978 118.778 310.481 105.09 313.886C92.8886 316.921 82.1286 316.22 66.4439 317.868C52.6292 319.32 41.9193 316.745 37.2291 313.319C25.4712 303.589 15.3923 292.622 14.1867 289.152C13.5794 287.404 12.9811 285.682 10.5739 280.437" stroke="#FFEF5E" stroke-width="200" stroke-linecap="round"/>
<path d="M1257.64 112.14C1258.84 115.601 1262.43 123.679 1266.33 132.959C1273.56 150.166 1265.48 177.239 1260.64 186.594C1252.46 202.401 1234.59 183.41 1234.59 200.264C1234.59 213.698 1218 221 1198.59 194.158C1195.01 189.211 1224.5 220.5 1178.59 200.263C1170.81 196.835 1160.5 195.419 1152 191.15C1144.2 187.232 1133.43 181.111 1123.98 178.196C1112 174.5 1098.42 168.856 1088.59 165.264C1078.77 161.671 1058.5 109.5 1066.29 150.964C1068.17 160.937 1073.24 156.34 1012 156.808C992.688 156.955 955.437 162.44 948.501 165.264C927.73 173.719 926.794 169.974 915.501 174C904.209 178.025 890.511 180.227 875.724 183.052C853.633 187.272 844.046 188.955 834.151 191.15C825.379 193.096 817.333 195.721 796.761 201.213C786.467 203.962 749.608 205.905 723.942 201.591C711.794 199.549 704.927 195.429 691.789 191.218C681.59 187.95 668.735 184.81 658.754 182.315C646.165 179.169 632.481 174.785 621.084 172.885C610.984 171.202 579.643 171.365 558.783 173.366C545.511 174.64 536.44 178.304 527.418 180.462C512.925 183.929 497.521 186.937 483.035 191.496C469.43 195.778 459.79 195.589 449.311 197.172C437.684 198.927 429.583 202.365 388.076 203.195C367.628 203.604 345.686 193.571 332.74 189.35C321.487 185.681 315.136 178.793 306.355 175.122C297.023 171.22 285.948 172.174 277.464 169.949C253.023 163.538 211.445 171.333 199.221 175.863C186.511 180.574 174.231 179.384 164.973 185.022C156.169 190.383 146.423 190.812 137.136 194.117C126.289 197.978 108.778 203.481 95.0896 206.886C82.8885 209.921 72.1285 209.22 56.4438 210.868C42.6291 212.32 31.9193 209.745 27.229 206.319C15.4711 196.588 5.39222 185.622 4.18664 182.152C3.57932 180.404 2.98108 178.682 0.573859 173.436" stroke="#FFF176" stroke-width="200" stroke-linecap="round"/>
<path d="M1256.64 0.139835C1257.84 3.60125 1261.43 11.6794 1265.33 20.9591C1272.56 38.1665 1264.48 65.2388 1259.64 74.594C1251.46 90.401 1233.59 71.4102 1233.59 88.2636C1233.59 101.698 1217 109 1197.59 82.1583C1194.01 77.2107 1223.5 108.5 1177.59 88.2634C1169.81 84.8348 1159.5 83.4189 1151 79.15C1143.2 75.2317 1132.43 69.1106 1122.98 66.1959C1111 62.4996 1097.42 56.8565 1087.59 53.2637C1077.77 49.671 1057.5 -2.5004 1065.29 38.9637C1067.17 48.9368 1072.24 44.3404 1011 44.808C991.688 44.9555 954.437 50.4404 947.501 53.2637C926.73 61.7194 925.794 57.9737 914.501 61.9995C903.209 66.0253 889.511 68.2271 874.724 71.0518C852.633 75.2715 843.046 76.9549 833.151 79.15C824.379 81.096 816.333 83.7212 795.761 89.2132C785.467 91.9615 748.608 93.9054 722.942 89.5912C710.794 87.5492 703.927 83.4286 690.789 79.2183C680.59 75.9498 667.735 72.8096 657.754 70.3152C645.165 67.1688 631.481 62.7855 620.084 60.8854C609.984 59.2017 578.643 59.3648 557.783 61.3665C544.511 62.64 535.44 66.3044 526.418 68.4623C511.925 71.9287 496.521 74.9369 482.035 79.496C468.43 83.7779 458.79 83.5893 448.311 85.1717C436.684 86.9273 428.583 90.3648 387.076 91.1947C366.628 91.6035 344.686 81.5712 331.74 77.3497C320.487 73.6806 314.136 66.793 305.355 63.1217C296.023 59.22 284.948 60.1736 276.464 57.9485C252.023 51.5379 210.445 59.3325 198.221 63.8631C185.511 68.5738 173.231 67.3845 163.973 73.0219C155.169 78.3827 145.423 78.8116 136.136 82.1172C125.289 85.9777 107.778 91.4811 94.0896 94.8859C81.8885 97.9207 71.1285 97.2198 55.4438 98.8679C41.6291 100.32 30.9193 97.7451 26.229 94.3191C14.4711 84.5883 4.39222 73.6221 3.18664 70.152C2.57932 68.404 1.98108 66.682 -0.426141 61.4365" stroke="#FFF493" stroke-width="200" stroke-linecap="round"/>
</g>
<defs>
<clipPath id="clip0_1033_11760">
<rect width="1307" height="464" fill="white"/>
</clipPath>
</defs>
</svg>
