<svg width="1280" height="625" viewBox="0 0 1280 625" fill="none" xmlns="http://www.w3.org/2000/svg">
<path d="M1266.64 425.14C1267.84 428.602 1271.43 436.68 1275.33 445.959C1282.56 463.167 1274.48 490.239 1269.64 499.594C1261.46 515.401 1243.59 496.411 1243.59 513.264C1243.59 526.698 1207.59 499.206 1207.59 507.159C1207.59 513.264 1201.12 517.275 1187.59 513.264C1179.44 510.848 1168.18 511.427 1159.68 507.159C1151.88 503.24 1141.23 496.639 1132.98 491.196C1124.75 485.77 1107.42 481.857 1097.59 478.264C1087.77 474.671 1086.12 467.636 1075.29 463.964C1065.68 460.705 1079.33 463.497 1018.09 463.964C998.777 464.112 956.272 477.297 956.272 469.808C956.272 458.599 933.724 479.972 921.811 484.22C910.519 488.245 899.511 493.227 884.723 496.052C862.632 500.272 853.046 501.955 843.151 504.15C834.379 506.096 826.332 508.722 805.761 514.214C795.467 516.962 758.608 518.906 732.942 514.592C720.794 512.55 713.927 508.429 700.789 504.219C690.589 500.95 677.735 497.81 667.754 495.316C655.165 492.169 641.48 487.786 630.083 485.886C619.984 484.202 588.643 484.365 567.782 486.367C554.51 487.64 545.44 491.305 536.417 493.463C521.925 496.929 506.521 499.937 492.034 504.496C478.429 508.778 468.79 508.59 458.31 510.172C446.683 511.928 438.582 515.365 397.076 516.195C376.627 516.604 354.685 506.572 341.739 502.35C330.487 498.681 324.136 491.793 315.354 488.122C306.022 484.22 294.947 485.174 286.464 482.949C262.022 476.538 220.445 484.333 208.22 488.864C195.511 493.574 183.23 492.385 173.973 498.022C165.169 503.383 155.423 503.812 146.135 507.118C135.289 510.978 117.778 516.481 104.089 519.886C91.8881 522.921 81.1281 522.22 65.4434 523.868C51.6287 525.32 40.9188 522.745 36.2286 519.319C24.4707 509.589 14.3918 498.622 13.1862 495.152C12.5789 493.404 11.9806 491.682 9.57343 486.437" stroke="#8EC5EC" stroke-width="200" stroke-linecap="round"/>
<path d="M1267.64 321.14C1268.84 324.602 1272.43 332.68 1276.33 341.959C1283.56 359.167 1275.48 386.239 1270.64 395.594C1262.46 411.401 1244.59 392.411 1244.59 409.264C1244.59 422.698 1208.59 395.206 1208.59 403.159C1208.59 409.264 1202.12 413.275 1188.59 409.264C1180.44 406.848 1169.18 407.427 1160.68 403.159C1152.88 399.24 1142.23 392.639 1133.98 387.196C1125.75 381.77 1108.42 377.857 1098.59 374.264C1088.77 370.671 1087.12 363.636 1076.29 359.964C1066.68 356.705 1080.33 359.497 1019.09 359.964C999.777 360.112 957.272 373.297 957.272 365.808C957.272 354.599 934.724 375.972 922.811 380.22C911.519 384.245 900.511 389.227 885.723 392.052C863.632 396.272 854.046 397.955 844.151 400.15C835.379 402.096 827.332 404.722 806.761 410.214C796.467 412.962 759.608 414.906 733.942 410.592C721.794 408.55 714.927 404.429 701.789 400.219C691.589 396.95 678.735 393.81 668.754 391.316C656.165 388.169 642.48 383.786 631.083 381.886C620.984 380.202 589.643 380.365 568.782 382.367C555.51 383.64 546.44 387.305 537.417 389.463C522.925 392.929 507.521 395.937 493.034 400.496C479.429 404.778 469.79 404.59 459.31 406.172C447.683 407.928 439.582 411.365 398.076 412.195C377.627 412.604 355.685 402.572 342.739 398.35C331.487 394.681 325.136 387.793 316.354 384.122C307.022 380.22 295.947 381.174 287.464 378.949C263.022 372.538 221.445 380.333 209.22 384.864C196.511 389.574 184.23 388.385 174.973 394.022C166.169 399.383 156.423 399.812 147.135 403.118C136.289 406.978 118.778 412.481 105.089 415.886C92.8881 418.921 82.1281 418.22 66.4434 419.868C52.6287 421.32 41.9188 418.745 37.2286 415.319C25.4707 405.589 15.3918 394.622 14.1862 391.152C13.5789 389.404 12.9806 387.682 10.5734 382.437" stroke="#0577C8" stroke-width="200" stroke-linecap="round"/>
<path d="M1257.64 212.14C1258.84 215.602 1262.43 223.68 1266.33 232.96C1273.56 250.167 1265.48 277.239 1260.64 286.594C1252.46 302.402 1234.59 283.411 1234.59 300.264C1234.59 313.699 1218 321 1198.59 294.159C1195.01 289.211 1224.5 320.5 1178.59 300.264C1170.81 296.835 1160.5 295.419 1152 291.15C1144.2 287.232 1133.43 281.111 1123.98 278.196C1112 274.5 1098.42 268.857 1088.59 265.264C1078.77 261.671 1058.5 209.5 1066.29 250.964C1068.17 260.937 1073.24 256.341 1012 256.808C992.688 256.956 955.437 262.441 948.501 265.264C927.73 273.72 926.794 269.974 915.501 274C904.209 278.026 890.511 280.228 875.724 283.052C853.633 287.272 844.046 288.955 834.151 291.15C825.379 293.096 817.333 295.722 796.761 301.214C786.467 303.962 749.608 305.906 723.942 301.592C711.794 299.55 704.927 295.429 691.789 291.219C681.59 287.95 668.735 284.81 658.754 282.316C646.165 279.169 632.481 274.786 621.084 272.886C610.984 271.202 579.643 271.365 558.783 273.367C545.511 274.641 536.44 278.305 527.418 280.463C512.925 283.929 497.521 286.937 483.035 291.497C469.43 295.778 459.79 295.59 449.311 297.172C437.684 298.928 429.583 302.365 388.076 303.195C367.628 303.604 345.686 293.572 332.74 289.35C321.487 285.681 315.136 278.794 306.355 275.122C297.023 271.22 285.948 272.174 277.464 269.949C253.023 263.538 211.445 271.333 199.221 275.864C186.511 280.574 174.231 279.385 164.973 285.022C156.169 290.383 146.423 290.812 137.136 294.118C126.289 297.978 108.778 303.482 95.0896 306.886C82.8885 309.921 72.1285 309.22 56.4438 310.868C42.6291 312.32 31.9193 309.746 27.229 306.32C15.4711 296.589 5.39222 285.623 4.18664 282.153C3.57932 280.404 2.98108 278.682 0.573859 273.437" stroke="#015998" stroke-width="200" stroke-linecap="round"/>
<path d="M1257.64 100.14C1258.84 103.602 1262.43 111.68 1266.33 120.96C1273.56 138.167 1265.48 165.239 1260.64 174.594C1252.46 190.402 1234.59 171.411 1234.59 188.264C1234.59 201.699 1218 209 1198.59 182.159C1195.01 177.211 1224.5 208.5 1178.59 188.264C1170.81 184.835 1160.5 183.419 1152 179.15C1144.2 175.232 1133.43 169.111 1123.98 166.196C1112 162.5 1098.42 156.857 1088.59 153.264C1078.77 149.671 1058.5 97.5001 1066.29 138.964C1068.16 148.937 1073.24 144.341 1012 144.808C992.687 144.956 955.437 150.441 948.501 153.264C927.729 161.72 926.793 157.974 915.501 162C904.209 166.026 890.511 168.228 875.723 171.052C853.632 175.272 844.046 176.955 834.151 179.15C825.379 181.096 817.332 183.722 796.761 189.214C786.466 191.962 749.607 193.906 723.942 189.592C711.794 187.55 704.927 183.429 691.789 179.219C681.589 175.95 668.735 172.81 658.754 170.316C646.165 167.169 632.48 162.786 621.083 160.886C610.983 159.202 579.642 159.365 558.782 161.367C545.51 162.641 536.439 166.305 527.417 168.463C512.924 171.929 497.521 174.937 483.034 179.497C469.429 183.778 459.79 183.59 449.31 185.172C437.683 186.928 429.582 190.365 388.075 191.195C367.627 191.604 345.685 181.572 332.739 177.35C321.487 173.681 315.136 166.794 306.354 163.122C297.022 159.22 285.947 160.174 277.464 157.949C253.022 151.538 211.445 159.333 199.22 163.864C186.51 168.574 174.23 167.385 164.973 173.022C156.169 178.383 146.423 178.812 137.135 182.118C126.289 185.978 108.778 191.482 95.0891 194.886C82.888 197.921 72.128 197.22 56.4433 198.868C42.6287 200.32 31.9188 197.746 27.2285 194.32C15.4706 184.589 5.39173 173.623 4.18616 170.153C3.57884 168.404 2.98059 166.682 0.573371 161.437" stroke="#03497B" stroke-width="200" stroke-linecap="round"/>
</svg>
