<svg width="512" height="512" version="1.1" xmlns="http://www.w3.org/2000/svg" desc="Created with imagetracer.js version 1.2.6" ><path fill="rgb(3,1,4)" stroke="rgb(3,1,4)" stroke-width="1" opacity="0.7843137254901961" d="M 167.5 0 L 173 0.5 L 167.5 1 L 167.5 0 Z " /><path fill="rgb(3,1,4)" stroke="rgb(3,1,4)" stroke-width="1" opacity="0.7843137254901961" d="M 176.5 0 L 182 0.5 L 176.5 1 L 176.5 0 Z " /><path fill="rgb(3,1,4)" stroke="rgb(3,1,4)" stroke-width="1" opacity="0.7843137254901961" d="M 330.5 0 L 336 0.5 L 330.5 1 L 330.5 0 Z " /><path fill="rgb(3,1,4)" stroke="rgb(3,1,4)" stroke-width="1" opacity="0.7843137254901961" d="M 339.5 0 L 345 0.5 L 339.5 1 L 339.5 0 Z " /><path fill="rgb(3,1,4)" stroke="rgb(3,1,4)" stroke-width="1" opacity="0.7843137254901961" d="M 196.5 5 L 197.5 7 L 196.5 5 Z " /><path fill="rgb(3,1,4)" stroke="rgb(3,1,4)" stroke-width="1" opacity="0.7843137254901961" d="M 315.5 5 L 314.5 7 L 315.5 5 Z " /><path fill="rgb(3,1,4)" stroke="rgb(3,1,4)" stroke-width="1" opacity="0.7843137254901961" d="M 150.5 6 L 149.5 8 L 150.5 6 Z " /><path fill="rgb(3,1,4)" stroke="rgb(3,1,4)" stroke-width="1" opacity="0.7843137254901961" d="M 361.5 6 L 362.5 8 L 361.5 6 Z " /><path fill="rgb(3,1,4)" stroke="rgb(3,1,4)" stroke-width="1" opacity="0.7843137254901961" d="M 201.5 8 L 202.5 10 L 201.5 8 Z " /><path fill="rgb(3,1,4)" stroke="rgb(3,1,4)" stroke-width="1" opacity="0.7843137254901961" d="M 310.5 8 L 309.5 10 L 310.5 8 Z " /><path fill="rgb(3,1,4)" stroke="rgb(3,1,4)" stroke-width="1" opacity="0.7843137254901961" d="M 144.5 10 L 143.5 12 L 144.5 10 Z " /><path fill="rgb(3,1,4)" stroke="rgb(3,1,4)" stroke-width="1" opacity="0.7843137254901961" d="M 367.5 10 L 368.5 12 L 367.5 10 Z " /><path fill="rgb(3,1,4)" stroke="rgb(3,1,4)" stroke-width="1" opacity="0.7843137254901961" d="M 205.5 11 L 206.5 13 L 205.5 11 Z " /><path fill="rgb(3,1,4)" stroke="rgb(3,1,4)" stroke-width="1" opacity="0.7843137254901961" d="M 306.5 11 L 305.5 13 L 306.5 11 Z " /><path fill="rgb(3,1,4)" stroke="rgb(3,1,4)" stroke-width="1" opacity="0.7843137254901961" d="M 140.5 13 L 133.5 21 L 140.5 13 Z " /><path fill="rgb(3,1,4)" stroke="rgb(3,1,4)" stroke-width="1" opacity="0.7843137254901961" d="M 371.5 13 L 378.5 21 L 371.5 13 Z " /><path fill="rgb(3,1,4)" stroke="rgb(3,1,4)" stroke-width="1" opacity="0.7843137254901961" d="M 212.5 17 L 213.5 19 L 212.5 17 Z " /><path fill="rgb(3,1,4)" stroke="rgb(3,1,4)" stroke-width="1" opacity="0.7843137254901961" d="M 299.5 17 L 298.5 19 L 299.5 17 Z " /><path fill="rgb(3,1,4)" stroke="rgb(3,1,4)" stroke-width="1" opacity="0.7843137254901961" d="M 216.5 22 L 219.5 26 L 216.5 22 Z " /><path fill="rgb(3,1,4)" stroke="rgb(3,1,4)" stroke-width="1" opacity="0.7843137254901961" d="M 295.5 22 L 292.5 26 L 295.5 22 Z " /><path fill="rgb(3,1,4)" stroke="rgb(3,1,4)" stroke-width="1" opacity="0.7843137254901961" d="M 130.5 24 L 129.5 26 L 130.5 24 Z " /><path fill="rgb(3,1,4)" stroke="rgb(3,1,4)" stroke-width="1" opacity="0.7843137254901961" d="M 381.5 24 L 382.5 26 L 381.5 24 Z " /><path fill="rgb(3,1,4)" stroke="rgb(3,1,4)" stroke-width="1" opacity="0.7843137254901961" d="M 220.5 27 L 221.5 29 L 220.5 27 Z " /><path fill="rgb(3,1,4)" stroke="rgb(3,1,4)" stroke-width="1" opacity="0.7843137254901961" d="M 291.5 27 L 290.5 29 L 291.5 27 Z " /><path fill="rgb(3,1,4)" stroke="rgb(3,1,4)" stroke-width="1" opacity="0.7843137254901961" d="M 127.5 28 L 126.5 30 L 127.5 28 Z " /><path fill="rgb(3,1,4)" stroke="rgb(3,1,4)" stroke-width="1" opacity="0.7843137254901961" d="M 384.5 28 L 385.5 30 L 384.5 28 Z " /><path fill="rgb(3,1,4)" stroke="rgb(3,1,4)" stroke-width="1" opacity="0.7843137254901961" d="M 222.5 30 L 223.5 32 L 222.5 30 Z " /><path fill="rgb(3,1,4)" stroke="rgb(3,1,4)" stroke-width="1" opacity="0.7843137254901961" d="M 289.5 30 L 288.5 32 L 289.5 30 Z " /><path fill="rgb(3,1,4)" stroke="rgb(3,1,4)" stroke-width="1" opacity="0.7843137254901961" d="M 125.5 31 L 124.5 33 L 125.5 31 Z " /><path fill="rgb(3,1,4)" stroke="rgb(3,1,4)" stroke-width="1" opacity="0.7843137254901961" d="M 386.5 31 L 387.5 33 L 386.5 31 Z " /><path fill="rgb(3,1,4)" stroke="rgb(3,1,4)" stroke-width="1" opacity="0.7843137254901961" d="M 224.5 33 L 225.5 35 L 224.5 33 Z " /><path fill="rgb(3,1,4)" stroke="rgb(3,1,4)" stroke-width="1" opacity="0.7843137254901961" d="M 287.5 33 L 286.5 35 L 287.5 33 Z " /><path fill="rgb(3,1,4)" stroke="rgb(3,1,4)" stroke-width="1" opacity="0.7843137254901961" d="M 122.5 36 L 121.5 38 L 122.5 36 Z " /><path fill="rgb(3,1,4)" stroke="rgb(3,1,4)" stroke-width="1" opacity="0.7843137254901961" d="M 389.5 36 L 390.5 38 L 389.5 36 Z " /><path fill="rgb(3,1,4)" stroke="rgb(3,1,4)" stroke-width="1" opacity="0.7843137254901961" d="M 284.5 38 L 284 39.5 L 283.5 41 L 283 39.5 L 284.5 38 Z " /><path fill="rgb(3,1,4)" stroke="rgb(3,1,4)" stroke-width="1" opacity="0.7843137254901961" d="M 240.5 72 L 241 74.5 L 240 74.5 L 240.5 72 Z " /><path fill="rgb(3,1,4)" stroke="rgb(3,1,4)" stroke-width="1" opacity="0.7843137254901961" d="M 271.5 72 L 272 74.5 L 271 74.5 L 271.5 72 Z " /><path fill="rgb(3,1,4)" stroke="rgb(3,1,4)" stroke-width="1" opacity="0.7843137254901961" d="M 107.5 75 L 108 77.5 L 107 77.5 L 107.5 75 Z " /><path fill="rgb(3,1,4)" stroke="rgb(3,1,4)" stroke-width="1" opacity="0.7843137254901961" d="M 404.5 75 L 405 77.5 L 404 77.5 L 404.5 75 Z " /><path fill="rgb(3,1,4)" stroke="rgb(3,1,4)" stroke-width="1" opacity="0.7843137254901961" d="M 241.5 77 L 242 79.5 L 241 79.5 L 241.5 77 Z " /><path fill="rgb(3,1,4)" stroke="rgb(3,1,4)" stroke-width="1" opacity="0.7843137254901961" d="M 270.5 77 L 271 79.5 L 270 79.5 L 270.5 77 Z " /><path fill="rgb(3,1,4)" stroke="rgb(3,1,4)" stroke-width="1" opacity="0.7843137254901961" d="M 106.5 81 L 107 83.5 L 106 83.5 L 106.5 81 Z " /><path fill="rgb(3,1,4)" stroke="rgb(3,1,4)" stroke-width="1" opacity="0.7843137254901961" d="M 405.5 81 L 406 83.5 L 405 83.5 L 405.5 81 Z " /><path fill="rgb(3,1,4)" stroke="rgb(3,1,4)" stroke-width="1" opacity="0.7843137254901961" d="M 242.5 83 L 243 85.5 L 242 85.5 L 242.5 83 Z " /><path fill="rgb(3,1,4)" stroke="rgb(3,1,4)" stroke-width="1" opacity="0.7843137254901961" d="M 269.5 83 L 270 85.5 L 269 85.5 L 269.5 83 Z " /><path fill="rgb(3,1,4)" stroke="rgb(3,1,4)" stroke-width="1" opacity="0.7843137254901961" d="M 105.5 87 L 106 91.5 L 105 91.5 L 105.5 87 Z " /><path fill="rgb(3,1,4)" stroke="rgb(3,1,4)" stroke-width="1" opacity="0.7843137254901961" d="M 406.5 87 L 407 91.5 L 406 91.5 L 406.5 87 Z " /><path fill="rgb(3,1,4)" stroke="rgb(3,1,4)" stroke-width="1" opacity="0.7843137254901961" d="M 268.5 89 L 269 94.5 L 268 94.5 L 268.5 89 Z " /><path fill="rgb(3,1,4)" stroke="rgb(3,1,4)" stroke-width="1" opacity="0.7843137254901961" d="M 243.5 90 L 244 94.5 L 243 94.5 L 243.5 90 Z " /><path fill="rgb(3,1,4)" stroke="rgb(3,1,4)" stroke-width="1" opacity="0.7843137254901961" d="M 104.5 97 L 105 121.5 L 104 121.5 L 104.5 97 Z " /><path fill="rgb(3,1,4)" stroke="rgb(3,1,4)" stroke-width="1" opacity="0.7843137254901961" d="M 407.5 97 L 408 121.5 L 407 121.5 L 407.5 97 Z " /><path fill="rgb(3,1,4)" stroke="rgb(3,1,4)" stroke-width="1" opacity="0.7843137254901961" d="M 267.5 102 L 268 116.5 L 267 116.5 L 267.5 102 Z " /><path fill="rgb(3,1,4)" stroke="rgb(3,1,4)" stroke-width="1" opacity="0.7843137254901961" d="M 244.5 103 L 245 115.5 L 244 115.5 L 244.5 103 Z " /><path fill="rgb(3,1,4)" stroke="rgb(3,1,4)" stroke-width="1" opacity="0.7843137254901961" d="M 243.5 124 L 244 128.5 L 243 128.5 L 243.5 124 Z " /><path fill="rgb(3,1,4)" stroke="rgb(3,1,4)" stroke-width="1" opacity="0.7843137254901961" d="M 268.5 124 L 269 129.5 L 268 129.5 L 268.5 124 Z " /><path fill="rgb(3,1,4)" stroke="rgb(3,1,4)" stroke-width="1" opacity="0.7843137254901961" d="M 105.5 127 L 106 131.5 L 105 131.5 L 105.5 127 Z " /><path fill="rgb(3,1,4)" stroke="rgb(3,1,4)" stroke-width="1" opacity="0.7843137254901961" d="M 406.5 127 L 407 131.5 L 406 131.5 L 406.5 127 Z " /><path fill="rgb(3,1,4)" stroke="rgb(3,1,4)" stroke-width="1" opacity="0.7843137254901961" d="M 242.5 133 L 243 135.5 L 242 135.5 L 242.5 133 Z " /><path fill="rgb(3,1,4)" stroke="rgb(3,1,4)" stroke-width="1" opacity="0.7843137254901961" d="M 269.5 133 L 270 135.5 L 269 135.5 L 269.5 133 Z " /><path fill="rgb(3,1,4)" stroke="rgb(3,1,4)" stroke-width="1" opacity="0.7843137254901961" d="M 106.5 135 L 107 137.5 L 106 137.5 L 106.5 135 Z " /><path fill="rgb(3,1,4)" stroke="rgb(3,1,4)" stroke-width="1" opacity="0.7843137254901961" d="M 405.5 135 L 406 137.5 L 405 137.5 L 405.5 135 Z " /><path fill="rgb(3,1,4)" stroke="rgb(3,1,4)" stroke-width="1" opacity="0.7843137254901961" d="M 241.5 139 L 242 141.5 L 241 141.5 L 241.5 139 Z " /><path fill="rgb(3,1,4)" stroke="rgb(3,1,4)" stroke-width="1" opacity="0.7843137254901961" d="M 270.5 139 L 271 141.5 L 270 141.5 L 270.5 139 Z " /><path fill="rgb(3,1,4)" stroke="rgb(3,1,4)" stroke-width="1" opacity="0.7843137254901961" d="M 271.5 144 L 272 146.5 L 271 146.5 L 271.5 144 Z " /><path fill="rgb(3,1,4)" stroke="rgb(3,1,4)" stroke-width="1" opacity="0.7843137254901961" d="M 403.5 145 L 404 147.5 L 403 147.5 L 403.5 145 Z " /><path fill="rgb(3,1,4)" stroke="rgb(3,1,4)" stroke-width="1" opacity="0.7843137254901961" d="M 239.5 148 L 240 150.5 L 239 150.5 L 239.5 148 Z " /><path fill="rgb(3,1,4)" stroke="rgb(3,1,4)" stroke-width="1" opacity="0.7843137254901961" d="M 43.5 160 L 56 160.5 L 43.5 161 L 43.5 160 Z " /><path fill="rgb(3,1,4)" stroke="rgb(3,1,4)" stroke-width="1" opacity="0.7843137254901961" d="M 456.5 160 L 462 160.5 L 456.5 161 L 456.5 160 Z " /><path fill="rgb(3,1,4)" stroke="rgb(3,1,4)" stroke-width="1" opacity="0.7843137254901961" d="M 463.5 160 L 469 160.5 L 463.5 161 L 463.5 160 Z " /><path fill="rgb(3,1,4)" stroke="rgb(3,1,4)" stroke-width="1" opacity="0.7843137254901961" d="M 27.5 166 L 26.5 168 L 27.5 166 Z " /><path fill="rgb(3,1,4)" stroke="rgb(3,1,4)" stroke-width="1" opacity="0.7843137254901961" d="M 72.5 166 L 75 167.5 L 73.5 167 L 72.5 166 Z " /><path fill="rgb(3,1,4)" stroke="rgb(3,1,4)" stroke-width="1" opacity="0.7843137254901961" d="M 484.5 166 L 486.5 169 L 484.5 166 Z " /><path fill="rgb(3,1,4)" stroke="rgb(3,1,4)" stroke-width="1" opacity="0.7843137254901961" d="M 436.5 167 L 435.5 169 L 436.5 167 Z " /><path fill="rgb(3,1,4)" stroke="rgb(3,1,4)" stroke-width="1" opacity="0.7843137254901961" d="M 23.5 169 L 20.5 173 L 23.5 169 Z " /><path fill="rgb(3,1,4)" stroke="rgb(3,1,4)" stroke-width="1" opacity="0.7843137254901961" d="M 488.5 169 L 491.5 173 L 488.5 169 Z " /><path fill="rgb(3,1,4)" stroke="rgb(3,1,4)" stroke-width="1" opacity="0.7843137254901961" d="M 80.5 170 L 81.5 172 L 80.5 170 Z " /><path fill="rgb(3,1,4)" stroke="rgb(3,1,4)" stroke-width="1" opacity="0.7843137254901961" d="M 431.5 170 L 430.5 172 L 431.5 170 Z " /><path fill="rgb(3,1,4)" stroke="rgb(3,1,4)" stroke-width="1" opacity="0.7843137254901961" d="M 84.5 173 L 85.5 175 L 84.5 173 Z " /><path fill="rgb(3,1,4)" stroke="rgb(3,1,4)" stroke-width="1" opacity="0.7843137254901961" d="M 18.5 175 L 16.5 178 L 18.5 175 Z " /><path fill="rgb(3,1,4)" stroke="rgb(3,1,4)" stroke-width="1" opacity="0.7843137254901961" d="M 424.5 175 L 421.5 179 L 424.5 175 Z " /><path fill="rgb(3,1,4)" stroke="rgb(3,1,4)" stroke-width="1" opacity="0.7843137254901961" d="M 88.5 176 L 90.5 179 L 88.5 176 Z " /><path fill="rgb(3,1,4)" stroke="rgb(3,1,4)" stroke-width="1" opacity="0.7843137254901961" d="M 494.5 176 L 495.5 178 L 494.5 176 Z " /><path fill="rgb(3,1,4)" stroke="rgb(3,1,4)" stroke-width="1" opacity="0.7843137254901961" d="M 14.5 181 L 14 182.5 L 12.5 186 L 12 184.5 L 14.5 181 Z " /><path fill="rgb(3,1,4)" stroke="rgb(3,1,4)" stroke-width="1" opacity="0.7843137254901961" d="M 121.5 181 L 122.5 183 L 121.5 181 Z " /><path fill="rgb(3,1,4)" stroke="rgb(3,1,4)" stroke-width="1" opacity="0.7843137254901961" d="M 390.5 181 L 389.5 183 L 390.5 181 Z " /><path fill="rgb(3,1,4)" stroke="rgb(3,1,4)" stroke-width="1" opacity="0.7843137254901961" d="M 497.5 181 L 500 185.5 L 499 185.5 L 497.5 181 Z " /><path fill="rgb(3,1,4)" stroke="rgb(3,1,4)" stroke-width="1" opacity="0.7843137254901961" d="M 286.5 184 L 287.5 186 L 286.5 184 Z " /><path fill="rgb(3,1,4)" stroke="rgb(3,1,4)" stroke-width="1" opacity="0.7843137254901961" d="M 124.5 186 L 125.5 188 L 124.5 186 Z " /><path fill="rgb(3,1,4)" stroke="rgb(3,1,4)" stroke-width="1" opacity="0.7843137254901961" d="M 387.5 186 L 386.5 188 L 387.5 186 Z " /><path fill="rgb(3,1,4)" stroke="rgb(3,1,4)" stroke-width="1" opacity="0.7843137254901961" d="M 223.5 187 L 222.5 189 L 223.5 187 Z " /><path fill="rgb(3,1,4)" stroke="rgb(3,1,4)" stroke-width="1" opacity="0.7843137254901961" d="M 288.5 187 L 289.5 189 L 288.5 187 Z " /><path fill="rgb(3,1,4)" stroke="rgb(3,1,4)" stroke-width="1" opacity="0.7843137254901961" d="M 100.5 188 L 103.5 192 L 100.5 188 Z " /><path fill="rgb(3,1,4)" stroke="rgb(3,1,4)" stroke-width="1" opacity="0.7843137254901961" d="M 411.5 188 L 407.5 193 L 411.5 188 Z " /><path fill="rgb(3,1,4)" stroke="rgb(3,1,4)" stroke-width="1" opacity="0.7843137254901961" d="M 126.5 189 L 127.5 191 L 126.5 189 Z " /><path fill="rgb(3,1,4)" stroke="rgb(3,1,4)" stroke-width="1" opacity="0.7843137254901961" d="M 385.5 189 L 384.5 191 L 385.5 189 Z " /><path fill="rgb(3,1,4)" stroke="rgb(3,1,4)" stroke-width="1" opacity="0.7843137254901961" d="M 221.5 190 L 220.5 192 L 221.5 190 Z " /><path fill="rgb(3,1,4)" stroke="rgb(3,1,4)" stroke-width="1" opacity="0.7843137254901961" d="M 290.5 190 L 291.5 192 L 290.5 190 Z " /><path fill="rgb(3,1,4)" stroke="rgb(3,1,4)" stroke-width="1" opacity="0.7843137254901961" d="M 129.5 193 L 131.5 196 L 129.5 193 Z " /><path fill="rgb(3,1,4)" stroke="rgb(3,1,4)" stroke-width="1" opacity="0.7843137254901961" d="M 382.5 193 L 380.5 196 L 382.5 193 Z " /><path fill="rgb(3,1,4)" stroke="rgb(3,1,4)" stroke-width="1" opacity="0.7843137254901961" d="M 105.5 194 L 107.5 197 L 105.5 194 Z " /><path fill="rgb(3,1,4)" stroke="rgb(3,1,4)" stroke-width="1" opacity="0.7843137254901961" d="M 218.5 194 L 215.5 198 L 218.5 194 Z " /><path fill="rgb(3,1,4)" stroke="rgb(3,1,4)" stroke-width="1" opacity="0.7843137254901961" d="M 293.5 194 L 296.5 198 L 293.5 194 Z " /><path fill="rgb(3,1,4)" stroke="rgb(3,1,4)" stroke-width="1" opacity="0.7843137254901961" d="M 406.5 194 L 404.5 197 L 406.5 194 Z " /><path fill="rgb(3,1,4)" stroke="rgb(3,1,4)" stroke-width="1" opacity="0.7843137254901961" d="M 108.5 198 L 109.5 200 L 108.5 198 Z " /><path fill="rgb(3,1,4)" stroke="rgb(3,1,4)" stroke-width="1" opacity="0.7843137254901961" d="M 134.5 199 L 138.5 204 L 134.5 199 Z " /><path fill="rgb(3,1,4)" stroke="rgb(3,1,4)" stroke-width="1" opacity="0.7843137254901961" d="M 377.5 199 L 373.5 204 L 377.5 199 Z " /><path fill="rgb(3,1,4)" stroke="rgb(3,1,4)" stroke-width="1" opacity="0.7843137254901961" d="M 7.5 200 L 8 202.5 L 7 202.5 L 7.5 200 Z " /><path fill="rgb(3,1,4)" stroke="rgb(3,1,4)" stroke-width="1" opacity="0.7843137254901961" d="M 504.5 200 L 505 202.5 L 504 202.5 L 504.5 200 Z " /><path fill="rgb(3,1,4)" stroke="rgb(3,1,4)" stroke-width="1" opacity="0.7843137254901961" d="M 110.5 201 L 111.5 203 L 110.5 201 Z " /><path fill="rgb(3,1,4)" stroke="rgb(3,1,4)" stroke-width="1" opacity="0.7843137254901961" d="M 208.5 204 L 205.5 208 L 208.5 204 Z " /><path fill="rgb(3,1,4)" stroke="rgb(3,1,4)" stroke-width="1" opacity="0.7843137254901961" d="M 304.5 205 L 306.5 208 L 304.5 205 Z " /><path fill="rgb(3,1,4)" stroke="rgb(3,1,4)" stroke-width="1" opacity="0.7843137254901961" d="M 142.5 206 L 144.5 209 L 142.5 206 Z " /><path fill="rgb(3,1,4)" stroke="rgb(3,1,4)" stroke-width="1" opacity="0.7843137254901961" d="M 369.5 206 L 368.5 208 L 369.5 206 Z " /><path fill="rgb(3,1,4)" stroke="rgb(3,1,4)" stroke-width="1" opacity="0.7843137254901961" d="M 6.5 207 L 7 217.5 L 6 217.5 L 6.5 207 Z " /><path fill="rgb(3,1,4)" stroke="rgb(3,1,4)" stroke-width="1" opacity="0.7843137254901961" d="M 505.5 207 L 506 217.5 L 505 217.5 L 505.5 207 Z " /><path fill="rgb(3,1,4)" stroke="rgb(3,1,4)" stroke-width="1" opacity="0.7843137254901961" d="M 203.5 208 L 201.5 211 L 203.5 208 Z " /><path fill="rgb(3,1,4)" stroke="rgb(3,1,4)" stroke-width="1" opacity="0.7843137254901961" d="M 308.5 208 L 310.5 211 L 308.5 208 Z " /><path fill="rgb(3,1,4)" stroke="rgb(3,1,4)" stroke-width="1" opacity="0.7843137254901961" d="M 115.5 209 L 116.5 211 L 115.5 209 Z " /><path fill="rgb(3,1,4)" stroke="rgb(3,1,4)" stroke-width="1" opacity="0.7843137254901961" d="M 146.5 209 L 147.5 211 L 146.5 209 Z " /><path fill="rgb(3,1,4)" stroke="rgb(3,1,4)" stroke-width="1" opacity="0.7843137254901961" d="M 365.5 209 L 364.5 211 L 365.5 209 Z " /><path fill="rgb(3,1,4)" stroke="rgb(3,1,4)" stroke-width="1" opacity="0.7843137254901961" d="M 151.5 212 L 152.5 214 L 151.5 212 Z " /><path fill="rgb(3,1,4)" stroke="rgb(3,1,4)" stroke-width="1" opacity="0.7843137254901961" d="M 326.5 217 L 329 217.5 L 326.5 218 L 326.5 217 Z " /><path fill="rgb(3,1,4)" stroke="rgb(3,1,4)" stroke-width="1" opacity="0.7843137254901961" d="M 168.5 218 L 181 218.5 L 168.5 219 L 168.5 218 Z " /><path fill="rgb(3,1,4)" stroke="rgb(3,1,4)" stroke-width="1" opacity="0.7843137254901961" d="M 331.5 218 L 344 218.5 L 331.5 219 L 331.5 218 Z " /><path fill="rgb(3,1,4)" stroke="rgb(3,1,4)" stroke-width="1" opacity="0.7843137254901961" d="M 6.5 219 L 7 226.5 L 6 226.5 L 6.5 219 Z " /><path fill="rgb(3,1,4)" stroke="rgb(3,1,4)" stroke-width="1" opacity="0.7843137254901961" d="M 505.5 219 L 506 226.5 L 505 226.5 L 505.5 219 Z " /><path fill="rgb(3,1,4)" stroke="rgb(3,1,4)" stroke-width="1" opacity="0.7843137254901961" d="M 7.5 231 L 8 234.5 L 7 234.5 L 7.5 231 Z " /><path fill="rgb(3,1,4)" stroke="rgb(3,1,4)" stroke-width="1" opacity="0.7843137254901961" d="M 504.5 231 L 505 234.5 L 504 234.5 L 504.5 231 Z " /><path fill="rgb(3,1,4)" stroke="rgb(3,1,4)" stroke-width="1" opacity="0.7843137254901961" d="M 8.5 237 L 9 239.5 L 8 239.5 L 8.5 237 Z " /><path fill="rgb(3,1,4)" stroke="rgb(3,1,4)" stroke-width="1" opacity="0.7843137254901961" d="M 503.5 237 L 504 239.5 L 503 239.5 L 503.5 237 Z " /><path fill="rgb(3,1,4)" stroke="rgb(3,1,4)" stroke-width="1" opacity="0.7843137254901961" d="M 131.5 250 L 132 252.5 L 131 252.5 L 131.5 250 Z " /><path fill="rgb(3,1,4)" stroke="rgb(3,1,4)" stroke-width="1" opacity="0.7843137254901961" d="M 380.5 250 L 381 252.5 L 380 252.5 L 380.5 250 Z " /><path fill="rgb(3,1,4)" stroke="rgb(3,1,4)" stroke-width="1" opacity="0.7843137254901961" d="M 132.5 256 L 133 259.5 L 132 259.5 L 132.5 256 Z " /><path fill="rgb(3,1,4)" stroke="rgb(3,1,4)" stroke-width="1" opacity="0.7843137254901961" d="M 379.5 256 L 380 259.5 L 379 259.5 L 379.5 256 Z " /><path fill="rgb(3,1,4)" stroke="rgb(3,1,4)" stroke-width="1" opacity="0.7843137254901961" d="M 251.5 264 L 258 264.5 L 251.5 265 L 251.5 264 Z " /><path fill="rgb(3,1,4)" stroke="rgb(3,1,4)" stroke-width="1" opacity="0.7843137254901961" d="M 272.5 264 L 279 264.5 L 272.5 265 L 272.5 264 Z " /><path fill="rgb(3,1,4)" stroke="rgb(3,1,4)" stroke-width="1" opacity="0.7843137254901961" d="M 244.5 265 L 247 265.5 L 244.5 266 L 244.5 265 Z " /><path fill="rgb(3,1,4)" stroke="rgb(3,1,4)" stroke-width="1" opacity="0.7843137254901961" d="M 283.5 265 L 286 265.5 L 283.5 266 L 283.5 265 Z " /><path fill="rgb(3,1,4)" stroke="rgb(3,1,4)" stroke-width="1" opacity="0.7843137254901961" d="M 133.5 266 L 134 277.5 L 133 277.5 L 133.5 266 Z " /><path fill="rgb(3,1,4)" stroke="rgb(3,1,4)" stroke-width="1" opacity="0.7843137254901961" d="M 239.5 266 L 242 266.5 L 239.5 267 L 239.5 266 Z " /><path fill="rgb(3,1,4)" stroke="rgb(3,1,4)" stroke-width="1" opacity="0.7843137254901961" d="M 289.5 266 L 292 266.5 L 289.5 267 L 289.5 266 Z " /><path fill="rgb(3,1,4)" stroke="rgb(3,1,4)" stroke-width="1" opacity="0.7843137254901961" d="M 378.5 266 L 379 277.5 L 378 277.5 L 378.5 266 Z " /><path fill="rgb(3,1,4)" stroke="rgb(3,1,4)" stroke-width="1" opacity="0.7843137254901961" d="M 215.5 274 L 214.5 276 L 215.5 274 Z " /><path fill="rgb(3,1,4)" stroke="rgb(3,1,4)" stroke-width="1" opacity="0.7843137254901961" d="M 322.5 278 L 323.5 280 L 322.5 278 Z " /><path fill="rgb(3,1,4)" stroke="rgb(3,1,4)" stroke-width="1" opacity="0.7843137254901961" d="M 206.5 279 L 205.5 281 L 206.5 279 Z " /><path fill="rgb(3,1,4)" stroke="rgb(3,1,4)" stroke-width="1" opacity="0.7843137254901961" d="M 325.5 280 L 326.5 282 L 325.5 280 Z " /><path fill="rgb(3,1,4)" stroke="rgb(3,1,4)" stroke-width="1" opacity="0.7843137254901961" d="M 203.5 281 L 202.5 283 L 203.5 281 Z " /><path fill="rgb(3,1,4)" stroke="rgb(3,1,4)" stroke-width="1" opacity="0.7843137254901961" d="M 26.5 283 L 27.5 285 L 26.5 283 Z " /><path fill="rgb(3,1,4)" stroke="rgb(3,1,4)" stroke-width="1" opacity="0.7843137254901961" d="M 132.5 283 L 133 285.5 L 132 285.5 L 132.5 283 Z " /><path fill="rgb(3,1,4)" stroke="rgb(3,1,4)" stroke-width="1" opacity="0.7843137254901961" d="M 329.5 283 L 344.5 299 L 329.5 283 Z " /><path fill="rgb(3,1,4)" stroke="rgb(3,1,4)" stroke-width="1" opacity="0.7843137254901961" d="M 379.5 283 L 380 285.5 L 379 285.5 L 379.5 283 Z " /><path fill="rgb(3,1,4)" stroke="rgb(3,1,4)" stroke-width="1" opacity="0.7843137254901961" d="M 485.5 283 L 484.5 285 L 485.5 283 Z " /><path fill="rgb(3,1,4)" stroke="rgb(3,1,4)" stroke-width="1" opacity="0.7843137254901961" d="M 199.5 284 L 180.5 304 L 199.5 284 Z " /><path fill="rgb(3,1,4)" stroke="rgb(3,1,4)" stroke-width="1" opacity="0.7843137254901961" d="M 28.5 286 L 29.5 288 L 28.5 286 Z " /><path fill="rgb(3,1,4)" stroke="rgb(3,1,4)" stroke-width="1" opacity="0.7843137254901961" d="M 483.5 286 L 482.5 288 L 483.5 286 Z " /><path fill="rgb(3,1,4)" stroke="rgb(3,1,4)" stroke-width="1" opacity="0.7843137254901961" d="M 30.5 289 L 31.5 291 L 30.5 289 Z " /><path fill="rgb(3,1,4)" stroke="rgb(3,1,4)" stroke-width="1" opacity="0.7843137254901961" d="M 131.5 289 L 132 291.5 L 131 291.5 L 131.5 289 Z " /><path fill="rgb(3,1,4)" stroke="rgb(3,1,4)" stroke-width="1" opacity="0.7843137254901961" d="M 380.5 289 L 381 291.5 L 380 291.5 L 380.5 289 Z " /><path fill="rgb(3,1,4)" stroke="rgb(3,1,4)" stroke-width="1" opacity="0.7843137254901961" d="M 481.5 289 L 480.5 291 L 481.5 289 Z " /><path fill="rgb(3,1,4)" stroke="rgb(3,1,4)" stroke-width="1" opacity="0.7843137254901961" d="M 33.5 293 L 34.5 295 L 33.5 293 Z " /><path fill="rgb(3,1,4)" stroke="rgb(3,1,4)" stroke-width="1" opacity="0.7843137254901961" d="M 478.5 293 L 477.5 295 L 478.5 293 Z " /><path fill="rgb(3,1,4)" stroke="rgb(3,1,4)" stroke-width="1" opacity="0.7843137254901961" d="M 36.5 297 L 41.5 303 L 36.5 297 Z " /><path fill="rgb(3,1,4)" stroke="rgb(3,1,4)" stroke-width="1" opacity="0.7843137254901961" d="M 475.5 297 L 470.5 303 L 475.5 297 Z " /><path fill="rgb(3,1,4)" stroke="rgb(3,1,4)" stroke-width="1" opacity="0.7843137254901961" d="M 348.5 303 L 351.5 307 L 348.5 303 Z " /><path fill="rgb(3,1,4)" stroke="rgb(3,1,4)" stroke-width="1" opacity="0.7843137254901961" d="M 44.5 305 L 50.5 312 L 44.5 305 Z " /><path fill="rgb(3,1,4)" stroke="rgb(3,1,4)" stroke-width="1" opacity="0.7843137254901961" d="M 467.5 305 L 461.5 312 L 467.5 305 Z " /><path fill="rgb(3,1,4)" stroke="rgb(3,1,4)" stroke-width="1" opacity="0.7843137254901961" d="M 177.5 307 L 174.5 311 L 177.5 307 Z " /><path fill="rgb(3,1,4)" stroke="rgb(3,1,4)" stroke-width="1" opacity="0.7843137254901961" d="M 353.5 309 L 356.5 313 L 353.5 309 Z " /><path fill="rgb(3,1,4)" stroke="rgb(3,1,4)" stroke-width="1" opacity="0.7843137254901961" d="M 122.5 311 L 121.5 313 L 122.5 311 Z " /><path fill="rgb(3,1,4)" stroke="rgb(3,1,4)" stroke-width="1" opacity="0.7843137254901961" d="M 389.5 311 L 390.5 313 L 389.5 311 Z " /><path fill="rgb(3,1,4)" stroke="rgb(3,1,4)" stroke-width="1" opacity="0.7843137254901961" d="M 53.5 313 L 54.5 315 L 53.5 313 Z " /><path fill="rgb(3,1,4)" stroke="rgb(3,1,4)" stroke-width="1" opacity="0.7843137254901961" d="M 458.5 313 L 457.5 315 L 458.5 313 Z " /><path fill="rgb(3,1,4)" stroke="rgb(3,1,4)" stroke-width="1" opacity="0.7843137254901961" d="M 120.5 314 L 116.5 319 L 120.5 314 Z " /><path fill="rgb(3,1,4)" stroke="rgb(3,1,4)" stroke-width="1" opacity="0.7843137254901961" d="M 171.5 314 L 168.5 318 L 171.5 314 Z " /><path fill="rgb(3,1,4)" stroke="rgb(3,1,4)" stroke-width="1" opacity="0.7843137254901961" d="M 391.5 314 L 395.5 319 L 391.5 314 Z " /><path fill="rgb(3,1,4)" stroke="rgb(3,1,4)" stroke-width="1" opacity="0.7843137254901961" d="M 358.5 315 L 360.5 318 L 358.5 315 Z " /><path fill="rgb(3,1,4)" stroke="rgb(3,1,4)" stroke-width="1" opacity="0.7843137254901961" d="M 57.5 316 L 58.5 318 L 57.5 316 Z " /><path fill="rgb(3,1,4)" stroke="rgb(3,1,4)" stroke-width="1" opacity="0.7843137254901961" d="M 454.5 316 L 453.5 318 L 454.5 316 Z " /><path fill="rgb(3,1,4)" stroke="rgb(3,1,4)" stroke-width="1" opacity="0.7843137254901961" d="M 62.5 319 L 63.5 321 L 62.5 319 Z " /><path fill="rgb(3,1,4)" stroke="rgb(3,1,4)" stroke-width="1" opacity="0.7843137254901961" d="M 167.5 319 L 165.5 322 L 167.5 319 Z " /><path fill="rgb(3,1,4)" stroke="rgb(3,1,4)" stroke-width="1" opacity="0.7843137254901961" d="M 449.5 319 L 448.5 321 L 449.5 319 Z " /><path fill="rgb(3,1,4)" stroke="rgb(3,1,4)" stroke-width="1" opacity="0.7843137254901961" d="M 113.5 320 L 112.5 322 L 113.5 320 Z " /><path fill="rgb(3,1,4)" stroke="rgb(3,1,4)" stroke-width="1" opacity="0.7843137254901961" d="M 362.5 320 L 364.5 323 L 362.5 320 Z " /><path fill="rgb(3,1,4)" stroke="rgb(3,1,4)" stroke-width="1" opacity="0.7843137254901961" d="M 398.5 320 L 399.5 322 L 398.5 320 Z " /><path fill="rgb(3,1,4)" stroke="rgb(3,1,4)" stroke-width="1" opacity="0.7843137254901961" d="M 110.5 322 L 109.5 324 L 110.5 322 Z " /><path fill="rgb(3,1,4)" stroke="rgb(3,1,4)" stroke-width="1" opacity="0.7843137254901961" d="M 401.5 322 L 402.5 324 L 401.5 322 Z " /><path fill="rgb(3,1,4)" stroke="rgb(3,1,4)" stroke-width="1" opacity="0.7843137254901961" d="M 163.5 324 L 162.5 326 L 163.5 324 Z " /><path fill="rgb(3,1,4)" stroke="rgb(3,1,4)" stroke-width="1" opacity="0.7843137254901961" d="M 365.5 324 L 367.5 327 L 365.5 324 Z " /><path fill="rgb(3,1,4)" stroke="rgb(3,1,4)" stroke-width="1" opacity="0.7843137254901961" d="M 82.5 327 L 85 327.5 L 82.5 328 L 82.5 327 Z " /><path fill="rgb(3,1,4)" stroke="rgb(3,1,4)" stroke-width="1" opacity="0.7843137254901961" d="M 427.5 327 L 430 327.5 L 427.5 328 L 427.5 327 Z " /><path fill="rgb(3,1,4)" stroke="rgb(3,1,4)" stroke-width="1" opacity="0.7843137254901961" d="M 160.5 328 L 158.5 331 L 160.5 328 Z " /><path fill="rgb(3,1,4)" stroke="rgb(3,1,4)" stroke-width="1" opacity="0.7843137254901961" d="M 369.5 329 L 371.5 332 L 369.5 329 Z " /><path fill="rgb(3,1,4)" stroke="rgb(3,1,4)" stroke-width="1" opacity="0.7843137254901961" d="M 156.5 333 L 155.5 335 L 156.5 333 Z " /><path fill="rgb(3,1,4)" stroke="rgb(3,1,4)" stroke-width="1" opacity="0.7843137254901961" d="M 372.5 333 L 373.5 335 L 372.5 333 Z " /><path fill="rgb(3,1,4)" stroke="rgb(3,1,4)" stroke-width="1" opacity="0.7843137254901961" d="M 154.5 336 L 153.5 338 L 154.5 336 Z " /><path fill="rgb(3,1,4)" stroke="rgb(3,1,4)" stroke-width="1" opacity="0.7843137254901961" d="M 375.5 337 L 376.5 339 L 375.5 337 Z " /><path fill="rgb(3,1,4)" stroke="rgb(3,1,4)" stroke-width="1" opacity="0.7843137254901961" d="M 151.5 340 L 150.5 342 L 151.5 340 Z " /><path fill="rgb(3,1,4)" stroke="rgb(3,1,4)" stroke-width="1" opacity="0.7843137254901961" d="M 378.5 341 L 379.5 343 L 378.5 341 Z " /><path fill="rgb(3,1,4)" stroke="rgb(3,1,4)" stroke-width="1" opacity="0.7843137254901961" d="M 149.5 343 L 148.5 345 L 149.5 343 Z " /><path fill="rgb(3,1,4)" stroke="rgb(3,1,4)" stroke-width="1" opacity="0.7843137254901961" d="M 380.5 344 L 381.5 346 L 380.5 344 Z " /><path fill="rgb(3,1,4)" stroke="rgb(3,1,4)" stroke-width="1" opacity="0.7843137254901961" d="M 146.5 347 L 145.5 349 L 146.5 347 Z " /><path fill="rgb(3,1,4)" stroke="rgb(3,1,4)" stroke-width="1" opacity="0.7843137254901961" d="M 383.5 348 L 384.5 350 L 383.5 348 Z " /><path fill="rgb(3,1,4)" stroke="rgb(3,1,4)" stroke-width="1" opacity="0.7843137254901961" d="M 144.5 350 L 143.5 352 L 144.5 350 Z " /><path fill="rgb(3,1,4)" stroke="rgb(3,1,4)" stroke-width="1" opacity="0.7843137254901961" d="M 385.5 351 L 386.5 353 L 385.5 351 Z " /><path fill="rgb(3,1,4)" stroke="rgb(3,1,4)" stroke-width="1" opacity="0.7843137254901961" d="M 142.5 353 L 141.5 355 L 142.5 353 Z " /><path fill="rgb(3,1,4)" stroke="rgb(3,1,4)" stroke-width="1" opacity="0.7843137254901961" d="M 387.5 354 L 388.5 356 L 387.5 354 Z " /><path fill="rgb(3,1,4)" stroke="rgb(3,1,4)" stroke-width="1" opacity="0.7843137254901961" d="M 140.5 356 L 139.5 358 L 140.5 356 Z " /><path fill="rgb(3,1,4)" stroke="rgb(3,1,4)" stroke-width="1" opacity="0.7843137254901961" d="M 138.5 359 L 137.5 361 L 138.5 359 Z " /><path fill="rgb(3,1,4)" stroke="rgb(3,1,4)" stroke-width="1" opacity="0.7843137254901961" d="M 392.5 361 L 393.5 363 L 392.5 361 Z " /><path fill="rgb(3,1,4)" stroke="rgb(3,1,4)" stroke-width="1" opacity="0.7843137254901961" d="M 136.5 362 L 135.5 364 L 136.5 362 Z " /><path fill="rgb(3,1,4)" stroke="rgb(3,1,4)" stroke-width="1" opacity="0.7843137254901961" d="M 394.5 364 L 395.5 366 L 394.5 364 Z " /><path fill="rgb(3,1,4)" stroke="rgb(3,1,4)" stroke-width="1" opacity="0.7843137254901961" d="M 134.5 365 L 133.5 367 L 134.5 365 Z " /><path fill="rgb(3,1,4)" stroke="rgb(3,1,4)" stroke-width="1" opacity="0.7843137254901961" d="M 396.5 367 L 397.5 369 L 396.5 367 Z " /><path fill="rgb(3,1,4)" stroke="rgb(3,1,4)" stroke-width="1" opacity="0.7843137254901961" d="M 132.5 368 L 131.5 370 L 132.5 368 Z " /><path fill="rgb(3,1,4)" stroke="rgb(3,1,4)" stroke-width="1" opacity="0.7843137254901961" d="M 398.5 370 L 399.5 372 L 398.5 370 Z " /><path fill="rgb(3,1,4)" stroke="rgb(3,1,4)" stroke-width="1" opacity="0.7843137254901961" d="M 130.5 371 L 129.5 373 L 130.5 371 Z " /><path fill="rgb(3,1,4)" stroke="rgb(3,1,4)" stroke-width="1" opacity="0.7843137254901961" d="M 400.5 373 L 401.5 375 L 400.5 373 Z " /><path fill="rgb(3,1,4)" stroke="rgb(3,1,4)" stroke-width="1" opacity="0.7843137254901961" d="M 128.5 374 L 127.5 376 L 128.5 374 Z " /><path fill="rgb(3,1,4)" stroke="rgb(3,1,4)" stroke-width="1" opacity="0.7843137254901961" d="M 126.5 377 L 125.5 379 L 126.5 377 Z " /><path fill="rgb(3,1,4)" stroke="rgb(3,1,4)" stroke-width="1" opacity="0.7843137254901961" d="M 404.5 379 L 405.5 381 L 404.5 379 Z " /><path fill="rgb(3,1,4)" stroke="rgb(3,1,4)" stroke-width="1" opacity="0.7843137254901961" d="M 123.5 382 L 122.5 384 L 123.5 382 Z " /><path fill="rgb(3,1,4)" stroke="rgb(3,1,4)" stroke-width="1" opacity="0.7843137254901961" d="M 406.5 382 L 407.5 384 L 406.5 382 Z " /><path fill="rgb(3,1,4)" stroke="rgb(3,1,4)" stroke-width="1" opacity="0.7843137254901961" d="M 121.5 385 L 120.5 387 L 121.5 385 Z " /><path fill="rgb(3,1,4)" stroke="rgb(3,1,4)" stroke-width="1" opacity="0.7843137254901961" d="M 408.5 385 L 409.5 387 L 408.5 385 Z " /><path fill="rgb(3,1,4)" stroke="rgb(3,1,4)" stroke-width="1" opacity="0.7843137254901961" d="M 118.5 390 L 117.5 392 L 118.5 390 Z " /><path fill="rgb(3,1,4)" stroke="rgb(3,1,4)" stroke-width="1" opacity="0.7843137254901961" d="M 411.5 390 L 412.5 392 L 411.5 390 Z " /><path fill="rgb(3,1,4)" stroke="rgb(3,1,4)" stroke-width="1" opacity="0.7843137254901961" d="M 116.5 393 L 115.5 395 L 116.5 393 Z " /><path fill="rgb(3,1,4)" stroke="rgb(3,1,4)" stroke-width="1" opacity="0.7843137254901961" d="M 413.5 393 L 414.5 395 L 413.5 393 Z " /><path fill="rgb(3,1,4)" stroke="rgb(3,1,4)" stroke-width="1" opacity="0.7843137254901961" d="M 113.5 398 L 112.5 400 L 113.5 398 Z " /><path fill="rgb(3,1,4)" stroke="rgb(3,1,4)" stroke-width="1" opacity="0.7843137254901961" d="M 416.5 398 L 417.5 400 L 416.5 398 Z " /><path fill="rgb(3,1,4)" stroke="rgb(3,1,4)" stroke-width="1" opacity="0.7843137254901961" d="M 110.5 403 L 109.5 405 L 110.5 403 Z " /><path fill="rgb(3,1,4)" stroke="rgb(3,1,4)" stroke-width="1" opacity="0.7843137254901961" d="M 108.5 406 L 107.5 408 L 108.5 406 Z " /><path fill="rgb(3,1,4)" stroke="rgb(3,1,4)" stroke-width="1" opacity="0.7843137254901961" d="M 421.5 406 L 422.5 408 L 421.5 406 Z " /><path fill="rgb(3,1,4)" stroke="rgb(3,1,4)" stroke-width="1" opacity="0.7843137254901961" d="M 103.5 415 L 102.5 417 L 103.5 415 Z " /><path fill="rgb(3,1,4)" stroke="rgb(3,1,4)" stroke-width="1" opacity="0.7843137254901961" d="M 426.5 415 L 427.5 417 L 426.5 415 Z " /><path fill="rgb(3,1,4)" stroke="rgb(3,1,4)" stroke-width="1" opacity="0.7843137254901961" d="M 90.5 444 L 91 446.5 L 90 446.5 L 90.5 444 Z " /><path fill="rgb(3,1,4)" stroke="rgb(3,1,4)" stroke-width="1" opacity="0.7843137254901961" d="M 439.5 444 L 440 446.5 L 439 446.5 L 439.5 444 Z " /><path fill="rgb(3,1,4)" stroke="rgb(3,1,4)" stroke-width="1" opacity="0.7843137254901961" d="M 89.5 449 L 90 454.5 L 89 454.5 L 89.5 449 Z " /><path fill="rgb(3,1,4)" stroke="rgb(3,1,4)" stroke-width="1" opacity="0.7843137254901961" d="M 440.5 449 L 441 455.5 L 440 455.5 L 440.5 449 Z " /><path fill="rgb(3,1,4)" stroke="rgb(3,1,4)" stroke-width="1" opacity="0.7843137254901961" d="M 89.5 459 L 90 465.5 L 89 465.5 L 89.5 459 Z " /><path fill="rgb(3,1,4)" stroke="rgb(3,1,4)" stroke-width="1" opacity="0.7843137254901961" d="M 440.5 459 L 441 465.5 L 440 465.5 L 440.5 459 Z " /><path fill="rgb(3,1,4)" stroke="rgb(3,1,4)" stroke-width="1" opacity="0.7843137254901961" d="M 435.5 481 L 436 482.5 L 434 483.5 L 435.5 481 Z " /><path fill="rgb(3,1,4)" stroke="rgb(3,1,4)" stroke-width="1" opacity="0.7843137254901961" d="M 94.5 482 L 95.5 484 L 94.5 482 Z " /><path fill="rgb(3,1,4)" stroke="rgb(3,1,4)" stroke-width="1" opacity="0.7843137254901961" d="M 243.5 484 L 248 484.5 L 243.5 485 L 243.5 484 Z " /><path fill="rgb(3,1,4)" stroke="rgb(3,1,4)" stroke-width="1" opacity="0.7843137254901961" d="M 282.5 484 L 287 484.5 L 282.5 485 L 282.5 484 Z " /><path fill="rgb(3,1,4)" stroke="rgb(3,1,4)" stroke-width="1" opacity="0.7843137254901961" d="M 232.5 486 L 235 486.5 L 232.5 487 L 232.5 486 Z " /><path fill="rgb(3,1,4)" stroke="rgb(3,1,4)" stroke-width="1" opacity="0.7843137254901961" d="M 295.5 486 L 298 486.5 L 295.5 487 L 295.5 486 Z " /><path fill="rgb(3,1,4)" stroke="rgb(3,1,4)" stroke-width="1" opacity="0.7843137254901961" d="M 97.5 487 L 98.5 489 L 97.5 487 Z " /><path fill="rgb(3,1,4)" stroke="rgb(3,1,4)" stroke-width="1" opacity="0.7843137254901961" d="M 432.5 487 L 431.5 489 L 432.5 487 Z " /><path fill="rgb(3,1,4)" stroke="rgb(3,1,4)" stroke-width="1" opacity="0.7843137254901961" d="M 99.5 490 L 107.5 499 L 99.5 490 Z " /><path fill="rgb(3,1,4)" stroke="rgb(3,1,4)" stroke-width="1" opacity="0.7843137254901961" d="M 429.5 491 L 423.5 498 L 429.5 491 Z " /><path fill="rgb(3,1,4)" stroke="rgb(3,1,4)" stroke-width="1" opacity="0.7843137254901961" d="M 213.5 493 L 212.5 495 L 213.5 493 Z " /><path fill="rgb(3,1,4)" stroke="rgb(3,1,4)" stroke-width="1" opacity="0.7843137254901961" d="M 319.5 495 L 320.5 497 L 319.5 495 Z " /><path fill="rgb(3,1,4)" stroke="rgb(3,1,4)" stroke-width="1" opacity="0.7843137254901961" d="M 207.5 497 L 206.5 499 L 207.5 497 Z " /><path fill="rgb(3,1,4)" stroke="rgb(3,1,4)" stroke-width="1" opacity="0.7843137254901961" d="M 322.5 497 L 323.5 499 L 322.5 497 Z " /><path fill="rgb(3,1,4)" stroke="rgb(3,1,4)" stroke-width="1" opacity="0.7843137254901961" d="M 109.5 499 L 110.5 501 L 109.5 499 Z " /><path fill="rgb(3,1,4)" stroke="rgb(3,1,4)" stroke-width="1" opacity="0.7843137254901961" d="M 420.5 499 L 419.5 501 L 420.5 499 Z " /><path fill="rgb(3,1,4)" stroke="rgb(3,1,4)" stroke-width="1" opacity="0.7843137254901961" d="M 201.5 500 L 203 500.5 L 197.5 503 L 197.5 502 L 201.5 500 Z " /><path fill="rgb(3,1,4)" stroke="rgb(3,1,4)" stroke-width="1" opacity="0.7843137254901961" d="M 327.5 500 L 333 502.5 L 331.5 503 L 327.5 501 L 327.5 500 Z " /><path fill="rgb(3,1,4)" stroke="rgb(3,1,4)" stroke-width="1" opacity="0.7843137254901961" d="M 112.5 501 L 113.5 503 L 112.5 501 Z " /><path fill="rgb(3,1,4)" stroke="rgb(3,1,4)" stroke-width="1" opacity="0.7843137254901961" d="M 417.5 501 L 416.5 503 L 417.5 501 Z " /><path fill="rgb(3,1,4)" stroke="rgb(3,1,4)" stroke-width="1" opacity="0.7843137254901961" d="M 136.5 510 L 139 510.5 L 136.5 511 L 136.5 510 Z " /><path fill="rgb(3,1,4)" stroke="rgb(3,1,4)" stroke-width="1" opacity="0.7843137254901961" d="M 172.5 510 L 176 510.5 L 172.5 511 L 172.5 510 Z " /><path fill="rgb(3,1,4)" stroke="rgb(3,1,4)" stroke-width="1" opacity="0.7843137254901961" d="M 355.5 510 L 358 510.5 L 355.5 511 L 355.5 510 Z " /><path fill="rgb(3,1,4)" stroke="rgb(3,1,4)" stroke-width="1" opacity="0.7843137254901961" d="M 144.5 511 L 152 511.5 L 144.5 512 L 144.5 511 Z " /><path fill="rgb(3,1,4)" stroke="rgb(3,1,4)" stroke-width="1" opacity="0.7843137254901961" d="M 160.5 511 L 168 511.5 L 160.5 512 L 160.5 511 Z " /><path fill="rgb(3,1,4)" stroke="rgb(3,1,4)" stroke-width="1" opacity="0.7843137254901961" d="M 362.5 511 L 372 511.5 L 362.5 512 L 362.5 511 Z " /><path fill="rgb(3,1,4)" stroke="rgb(3,1,4)" stroke-width="1" opacity="0.7843137254901961" d="M 378.5 511 L 386 511.5 L 378.5 512 L 378.5 511 Z " /><path fill="rgb(0,0,0)" stroke="rgb(0,0,0)" stroke-width="1" opacity="0" d="M 0 0 L 167 0.5 L 159.5 2 L 150.5 6 L 133 20.5 Q 118.6 37.1 111 60.5 L 105 87.5 L 104 121.5 L 105 122.5 L 105 131.5 L 108 147.5 L 116 171.5 Q 124.3 190.7 138.5 204 Q 147.2 212.3 159.5 217 L 168.5 219 L 180.5 219 Q 192.7 216.7 201.5 211 L 219 194.5 L 234 168.5 L 240 150.5 L 244 128.5 L 245 103.5 L 244 102.5 L 244 90.5 L 243 89.5 L 242 77.5 L 236 55.5 Q 227.8 32.8 212.5 17 L 196.5 5 L 182 0.5 L 329.5 0 L 329.5 1 L 322.5 2 L 315.5 5 L 298 18.5 Q 281.8 35.8 274 61.5 L 268 89.5 L 267 116.5 L 268 117.5 L 268 129.5 L 271 146.5 L 278 168.5 Q 287.8 192.8 306.5 208 L 326.5 218 L 343.5 219 Q 365.7 214.2 378 199.5 L 391 181.5 L 396 171.5 L 403 151.5 L 407 131.5 L 407 122.5 L 408 121.5 L 408 97.5 L 407 96.5 L 407 87.5 L 406 86.5 L 405 75.5 L 396 47.5 Q 387 27 371.5 13 Q 361.6 3.4 345 0.5 L 512 0 L 512 511.5 L 511.5 512 L 386.5 512 L 386.5 511 Q 416.3 509.3 430 491.5 Q 442.7 477.7 441 449.5 Q 436.9 430.6 428 416.5 L 394 362.5 L 357 312.5 L 329.5 283 Q 314 271 291.5 266 L 279.5 265 L 278.5 264 L 251.5 264 L 231.5 268 L 215.5 274 Q 194 285 180 303.5 L 145 348.5 L 107 407.5 L 94 432.5 L 90 444.5 L 89 449.5 L 89 465.5 L 94 482.5 Q 99 492.5 107.5 499 Q 121 510 144 511.5 L 0 512 L 0 0 Z M 44 160 Q 31 162 24 169 L 12 185 L 9 193 L 6 208 L 7 235 L 14 260 Q 22 281 36 298 L 59 318 Q 69 325 83 328 Q 95 330 103 327 L 117 319 Q 125 312 129 301 L 132 292 L 133 279 L 134 278 L 133 257 L 126 230 Q 118 208 104 192 Q 92 176 74 166 L 56 160 L 44 160 Z M 457 160 Q 437 164 425 175 Q 407 190 395 211 L 383 239 L 380 251 L 379 266 L 378 267 L 378 278 L 379 279 L 380 292 Q 384 305 391 315 Q 399 325 414 328 L 430 328 L 443 324 L 462 312 Q 478 298 489 279 Q 497 265 502 248 L 506 227 Q 508 190 492 173 Q 486 166 477 162 L 469 160 L 457 160 Z " /><path fill="rgb(0,0,0)" stroke="rgb(0,0,0)" stroke-width="1" opacity="0" d="M 248.5 484 L 281.5 484 L 282.5 485 L 290.5 485 Q 293.4 487.6 299.5 487 L 315.5 493 L 323.5 499 L 338.5 506 L 350.5 510 L 362 511.5 L 168.5 512 L 168.5 511 L 175.5 511 L 191.5 506 L 221.5 490 L 230.5 487 Q 236.6 487.6 239.5 485 L 247.5 485 L 248.5 484 Z " /><path fill="rgb(3,1,4)" stroke="rgb(3,1,4)" stroke-width="1" opacity="1" d="M 173.5 0 L 183.5 1 L 195.5 5 Q 207.6 11.4 216 21.5 Q 231.6 39.9 239 66.5 L 244 95.5 L 244 123.5 L 239 152.5 L 233 169.5 Q 224.6 190.1 209.5 204 Q 200.6 212.6 187.5 217 L 182.5 218 L 165.5 218 Q 143.9 212.1 132 196.5 L 121 180.5 L 110 153.5 L 105 126.5 L 105 92.5 L 106 91.5 L 108 73.5 L 116 48.5 Q 125.5 26.5 142.5 12 L 155.5 4 L 173.5 0 Z " /><path fill="rgb(3,1,4)" stroke="rgb(3,1,4)" stroke-width="1" opacity="1" d="M 336.5 0 L 346.5 1 L 360.5 6 Q 372.6 12.8 381 23.5 Q 395 41 402 65.5 L 407 92.5 L 407 126.5 L 403 149.5 L 396 170.5 Q 386.9 191.9 370.5 206 Q 362.5 213.5 350.5 217 Q 342.2 219.7 329.5 218 Q 308.5 213 297 198.5 Q 280.5 180 273 152.5 L 268 123.5 L 268 95.5 L 269 94.5 L 269 86.5 L 272 70.5 L 279 49.5 Q 288 27.5 304.5 13 L 316.5 5 L 324.5 2 L 335.5 1 L 336.5 0 Z " /><path fill="rgb(3,1,4)" stroke="rgb(3,1,4)" stroke-width="1" opacity="1" d="M 462.5 160 L 477.5 163 Q 487.6 167.4 494 175.5 L 503 194.5 L 505 203.5 L 505 217.5 L 506 218.5 L 505 219.5 L 505 230.5 L 503 241.5 L 495 265.5 Q 484.9 288.4 468.5 305 Q 457.9 315.9 443.5 323 L 426.5 328 L 415.5 328 Q 399.2 324.8 391 313.5 Q 382.8 303.7 380 288.5 Q 381.3 283.8 379 282.5 L 379 260.5 L 383 240.5 Q 387.9 223.4 396 209.5 Q 406.2 192.2 420.5 179 L 439.5 166 L 450.5 162 L 461.5 161 L 462.5 160 Z " /><path fill="rgb(3,1,4)" stroke="rgb(3,1,4)" stroke-width="1" opacity="1" d="M 40.5 161 L 57.5 161 L 67.5 164 Q 87.2 172.3 100 187.5 Q 115.8 204.7 125 228.5 L 132 253.5 Q 130.5 259 133 260.5 L 133 282.5 L 129 299.5 Q 124.2 312.2 114.5 320 Q 105 329 85.5 328 L 76.5 326 L 64.5 321 Q 51.8 313.8 42 303.5 Q 24.1 284.9 14 258.5 L 9 241.5 L 7 230.5 L 7 219.5 L 6 218.5 L 7 217.5 L 7 203.5 L 11 188.5 Q 15.8 175.8 25.5 168 L 40.5 161 Z " /><path fill="rgb(3,1,4)" stroke="rgb(3,1,4)" stroke-width="1" opacity="1" d="M 258.5 264 L 271.5 264 L 272.5 265 L 288.5 266 L 311.5 273 L 327.5 282 L 348 302.5 Q 389.3 351.7 423 408.5 L 437 436.5 L 440 447.5 L 441 458.5 L 440 459.5 L 440 468.5 L 438 476.5 Q 432.7 490.7 421.5 499 Q 412.8 505.8 400.5 509 L 390.5 511 L 372.5 512 L 371.5 511 L 358.5 511 L 342.5 507 L 324.5 499 L 314.5 492 L 301.5 487 L 286.5 484 L 266.5 484 L 264.5 483 L 263.5 484 L 243.5 484 L 228.5 487 Q 213.6 491.1 203.5 500 L 181.5 509 L 171.5 511 L 152.5 512 L 151.5 511 L 139.5 511 L 120.5 506 Q 107.3 500.3 99 489.5 L 92 476.5 L 90 468.5 L 89 455.5 L 90 454.5 L 91 442.5 L 95 431.5 L 107 408.5 L 125 379.5 L 164 323.5 Q 180.9 301.4 201.5 283 Q 212.3 274.8 226.5 270 L 247.5 265 L 257.5 265 L 258.5 264 Z " /></svg>