<svg width="1280" height="625" viewBox="0 0 1280 625" fill="none" xmlns="http://www.w3.org/2000/svg">
<path d="M1285.64 425.14C1286.84 428.602 1290.43 436.68 1294.33 445.959C1301.56 463.167 1293.48 490.239 1288.64 499.594C1280.46 515.401 1262.59 496.411 1262.59 513.264C1262.59 526.698 1226.59 499.206 1226.59 507.159C1226.59 513.264 1220.12 517.275 1206.59 513.264C1198.44 510.848 1187.18 511.427 1178.68 507.159C1170.88 503.24 1160.23 496.639 1151.98 491.196C1143.75 485.77 1126.42 481.857 1116.59 478.264C1106.77 474.671 1105.12 467.636 1094.29 463.964C1084.68 460.705 1098.33 463.497 1037.09 463.964C1017.78 464.112 975.272 477.297 975.272 469.808C975.272 458.599 952.725 479.972 940.811 484.22C929.519 488.245 918.511 493.227 903.724 496.052C881.633 500.272 872.046 501.955 862.151 504.15C853.379 506.096 845.333 508.722 824.761 514.214C814.467 516.962 777.608 518.906 751.943 514.592C739.794 512.55 732.927 508.429 719.789 504.219C709.59 500.95 696.735 497.81 686.754 495.316C674.165 492.169 660.481 487.786 649.084 485.886C638.984 484.202 607.643 484.365 586.783 486.367C573.511 487.64 564.44 491.305 555.418 493.463C540.925 496.929 525.521 499.937 511.035 504.496C497.43 508.778 487.79 508.59 477.311 510.172C465.684 511.928 457.583 515.365 416.076 516.195C395.628 516.604 373.686 506.572 360.74 502.35C349.487 498.681 343.136 491.793 334.355 488.122C325.023 484.22 313.948 485.174 305.464 482.949C281.023 476.538 239.445 484.333 227.221 488.864C214.511 493.574 202.231 492.385 192.973 498.022C184.17 503.383 174.423 503.812 165.136 507.118C154.29 510.978 136.778 516.481 123.09 519.886C110.889 522.921 100.129 522.22 84.4439 523.868C70.6292 525.32 59.9193 522.745 55.2291 519.319C43.4712 509.589 33.3923 498.622 32.1867 495.152C31.5794 493.404 30.9811 491.682 28.5739 486.437" stroke="#FFCE78" stroke-width="200" stroke-linecap="round"/>
<path d="M1286.64 321.14C1287.84 324.602 1291.43 332.68 1295.33 341.959C1302.56 359.167 1294.48 386.239 1289.64 395.594C1281.46 411.401 1263.59 392.411 1263.59 409.264C1263.59 422.698 1227.59 395.206 1227.59 403.159C1227.59 409.264 1221.12 413.275 1207.59 409.264C1199.44 406.848 1188.18 407.427 1179.68 403.159C1171.88 399.24 1161.23 392.639 1152.98 387.196C1144.75 381.77 1127.42 377.857 1117.59 374.264C1107.77 370.671 1106.12 363.636 1095.29 359.964C1085.68 356.705 1099.33 359.497 1038.09 359.964C1018.78 360.112 976.272 373.297 976.272 365.808C976.272 354.599 953.725 375.972 941.811 380.22C930.519 384.245 919.511 389.227 904.724 392.052C882.633 396.272 873.046 397.955 863.151 400.15C854.379 402.096 846.333 404.722 825.761 410.214C815.467 412.962 778.608 414.906 752.943 410.592C740.794 408.55 733.927 404.429 720.789 400.219C710.59 396.95 697.735 393.81 687.754 391.316C675.165 388.169 661.481 383.786 650.084 381.886C639.984 380.202 608.643 380.365 587.783 382.367C574.511 383.64 565.44 387.305 556.418 389.463C541.925 392.929 526.521 395.937 512.035 400.496C498.43 404.778 488.79 404.59 478.311 406.172C466.684 407.928 458.583 411.365 417.076 412.195C396.628 412.604 374.686 402.572 361.74 398.35C350.487 394.681 344.136 387.793 335.355 384.122C326.023 380.22 314.948 381.174 306.464 378.949C282.023 372.538 240.445 380.333 228.221 384.864C215.511 389.574 203.231 388.385 193.973 394.022C185.17 399.383 175.423 399.812 166.136 403.118C155.29 406.978 137.778 412.481 124.09 415.886C111.889 418.921 101.129 418.22 85.4439 419.868C71.6292 421.32 60.9193 418.745 56.2291 415.319C44.4712 405.589 34.3923 394.622 33.1867 391.152C32.5794 389.404 31.9811 387.682 29.5739 382.437" stroke="#FFBE4D" stroke-width="200" stroke-linecap="round"/>
<path d="M1276.64 212.14C1277.84 215.601 1281.43 223.679 1285.33 232.959C1292.56 250.166 1284.48 277.239 1279.64 286.594C1271.46 302.401 1253.59 283.41 1253.59 300.264C1253.59 313.698 1237 321 1217.59 294.158C1214.01 289.211 1243.5 320.5 1197.59 300.263C1189.81 296.835 1179.5 295.419 1171 291.15C1163.2 287.232 1152.43 281.111 1142.98 278.196C1131 274.5 1117.42 268.856 1107.59 265.264C1097.77 261.671 1077.5 209.5 1085.29 250.964C1087.17 260.937 1092.24 256.34 1031 256.808C1011.69 256.955 974.437 262.44 967.501 265.264C946.73 273.719 945.794 269.974 934.501 274C923.209 278.025 909.511 280.227 894.724 283.052C872.633 287.272 863.046 288.955 853.151 291.15C844.379 293.096 836.333 295.721 815.761 301.213C805.467 303.962 768.608 305.905 742.942 301.591C730.794 299.549 723.927 295.429 710.789 291.218C700.59 287.95 687.735 284.81 677.754 282.315C665.165 279.169 651.481 274.785 640.084 272.885C629.984 271.202 598.643 271.365 577.783 273.366C564.511 274.64 555.44 278.304 546.418 280.462C531.925 283.929 516.521 286.937 502.035 291.496C488.43 295.778 478.79 295.589 468.311 297.172C456.684 298.927 448.583 302.365 407.076 303.195C386.628 303.604 364.686 293.571 351.74 289.35C340.487 285.681 334.136 278.793 325.355 275.122C316.023 271.22 304.948 272.174 296.464 269.949C272.023 263.538 230.445 271.333 218.221 275.863C205.511 280.574 193.231 279.384 183.973 285.022C175.169 290.383 165.423 290.812 156.136 294.117C145.289 297.978 127.778 303.481 114.09 306.886C101.889 309.921 91.1285 309.22 75.4438 310.868C61.6291 312.32 50.9193 309.745 46.229 306.319C34.4711 296.588 24.3922 285.622 23.1866 282.152C22.5793 280.404 21.9811 278.682 19.5739 273.436" stroke="#FFAD1D" stroke-width="200" stroke-linecap="round"/>
<path d="M1276.64 100.14C1277.84 103.601 1281.43 111.679 1285.33 120.959C1292.56 138.166 1284.48 165.239 1279.64 174.594C1271.46 190.401 1253.59 171.41 1253.59 188.264C1253.59 201.698 1237 209 1217.59 182.158C1214.01 177.211 1243.5 208.5 1197.59 188.263C1189.81 184.835 1179.5 183.419 1171 179.15C1163.2 175.232 1152.43 169.111 1142.98 166.196C1131 162.5 1117.42 156.856 1107.59 153.264C1097.77 149.671 1077.5 97.4996 1085.29 138.964C1087.17 148.937 1092.24 144.34 1031 144.808C1011.69 144.955 974.437 150.44 967.501 153.264C946.73 161.719 945.794 157.974 934.501 162C923.209 166.025 909.511 168.227 894.724 171.052C872.633 175.272 863.046 176.955 853.151 179.15C844.379 181.096 836.333 183.721 815.761 189.213C805.467 191.962 768.608 193.905 742.942 189.591C730.794 187.549 723.927 183.429 710.789 179.218C700.59 175.95 687.735 172.81 677.754 170.315C665.165 167.169 651.481 162.785 640.084 160.885C629.984 159.202 598.643 159.365 577.783 161.366C564.511 162.64 555.44 166.304 546.418 168.462C531.925 171.929 516.521 174.937 502.035 179.496C488.43 183.778 478.79 183.589 468.311 185.172C456.684 186.927 448.583 190.365 407.076 191.195C386.628 191.604 364.686 181.571 351.74 177.35C340.487 173.681 334.136 166.793 325.355 163.122C316.023 159.22 304.948 160.174 296.464 157.949C272.023 151.538 230.445 159.333 218.221 163.863C205.511 168.574 193.231 167.384 183.973 173.022C175.169 178.383 165.423 178.812 156.136 182.117C145.289 185.978 127.778 191.481 114.09 194.886C101.889 197.921 91.1285 197.22 75.4438 198.868C61.6291 200.32 50.9193 197.745 46.229 194.319C34.4711 184.588 24.3922 173.622 23.1866 170.152C22.5793 168.404 21.9811 166.682 19.5739 161.436" stroke="#FDA202" stroke-width="200" stroke-linecap="round"/>
</svg>
