<svg version="1.1" id="Layer_1" xmlns="http://www.w3.org/2000/svg" xmlns:xlink="http://www.w3.org/1999/xlink" x="0px" y="0px"
	 width="100%" viewBox="0 0 1280 573" enable-background="new 0 0 1280 573" xml:space="preserve">
<path fill="#FFF493" opacity="1.000000" stroke="none" 
	d="
M1.000002,290.000000 
	C1.000000,214.312439 1.000000,138.624878 1.468382,62.469101 
	C35.443611,60.487961 63.454056,72.387749 86.644485,97.160347 
	C105.101646,90.790993 123.468590,83.976181 142.147171,78.162643 
	C156.273743,73.765877 170.736694,70.381996 185.163925,67.039284 
	C198.224930,64.013130 211.392609,61.375698 224.606064,59.107445 
	C232.008682,57.836697 239.590485,57.256512 247.107956,57.085361 
	C260.610718,56.777954 274.183777,56.239433 287.619080,57.245152 
	C300.366638,58.199390 313.003784,60.845207 325.637939,63.043236 
	C340.847473,65.689308 355.392059,70.679558 368.669769,78.452225 
	C382.257507,86.406403 395.681335,93.764511 412.243652,91.042831 
	C415.153931,90.564590 418.181396,90.827431 421.108154,90.416397 
	C428.500610,89.378212 435.859375,88.102699 443.245270,87.014519 
	C449.526825,86.089043 455.967560,85.857307 462.094360,84.337143 
	C484.444122,78.791756 506.646240,72.652237 528.990906,67.085533 
	C551.052063,61.589481 573.722107,61.185120 596.258789,60.128632 
	C605.644470,59.688641 615.128601,60.292156 624.510376,61.095016 
	C636.196228,62.095058 648.125244,62.585201 659.415955,65.419884 
	C689.847168,73.060051 720.321533,80.554085 750.102112,90.744545 
	C763.993286,95.497887 778.678589,93.084686 793.080994,89.616684 
	C818.031799,83.608673 843.214172,78.568130 868.265259,72.968895 
	C885.568787,69.101341 903.151062,66.033142 919.993469,60.673954 
	C937.386414,55.139610 955.090027,51.783756 972.973938,49.148849 
	C984.955444,47.383572 997.143005,47.027466 1009.231201,45.958828 
	C1010.442078,45.851788 1011.813354,45.448914 1012.755676,44.723057 
	C1035.512695,27.194117 1061.130981,21.107962 1089.449707,24.939306 
	C1112.558472,28.065800 1131.758179,38.708000 1148.148926,54.789150 
	C1152.198975,58.762741 1155.058350,63.955189 1159.134399,67.894760 
	C1161.602905,70.280571 1165.274658,71.590057 1168.633789,72.682091 
	C1169.077026,72.826164 1171.098633,68.902222 1172.004883,66.703865 
	C1176.974487,54.648556 1183.116577,43.253586 1191.975952,33.628334 
	C1206.443604,17.909752 1224.168579,7.619316 1245.091919,2.934484 
	C1245.835083,2.768053 1246.368774,1.666011 1247.000000,1.000015 
	C1258.317993,1.000000 1269.635986,1.000000 1281.000000,1.000000 
	C1281.000000,97.354225 1281.000000,193.708450 1280.618042,290.542084 
	C1279.131592,291.359497 1277.987793,291.603729 1276.928711,292.049683 
	C1262.513672,298.119415 1247.640869,301.124420 1231.854126,301.225739 
	C1216.786621,301.322449 1202.514648,297.620178 1188.292358,294.017273 
	C1171.248291,289.699554 1154.375488,284.385620 1137.891724,278.256836 
	C1117.028687,270.499725 1096.582886,261.605072 1076.054321,252.969772 
	C1064.744629,248.212296 1053.366089,244.815948 1040.821533,245.873718 
	C1032.878784,246.543442 1024.791870,245.484650 1016.845154,246.131302 
	C1006.960815,246.935608 997.042908,248.165436 987.344299,250.191544 
	C976.640015,252.427719 966.222168,255.998474 955.581238,258.583344 
	C940.424805,262.265137 925.209412,265.720642 909.963013,269.012177 
	C891.802002,272.932953 873.330872,275.661499 855.444580,280.553680 
	C827.412598,288.220886 799.294922,294.130981 770.054993,293.008026 
	C760.259521,292.631836 750.397339,292.918304 740.679443,291.858368 
	C727.535156,290.424713 714.237488,289.012054 701.478638,285.743896 
	C680.728821,280.428955 660.182617,274.149353 639.884155,267.289642 
	C619.335022,260.345184 598.392517,259.015503 577.403137,262.309204 
	C561.059143,264.873962 544.815002,269.015198 529.041992,274.065674 
	C503.050598,282.388092 476.059875,284.610809 449.404663,288.871643 
	C439.778259,290.410400 429.921478,290.932159 420.156769,291.085693 
	C404.071533,291.338654 387.725098,292.625458 371.951660,290.315399 
	C354.664642,287.783661 337.746948,282.168213 320.965332,276.942657 
	C309.574982,273.395844 298.173767,269.167633 287.728241,263.493622 
	C276.051788,257.150970 263.814453,255.293823 251.602768,257.660645 
	C234.749237,260.927155 218.316605,266.378357 201.725708,270.973328 
	C199.170929,271.680908 196.777695,272.958679 194.235306,273.726196 
	C178.493118,278.478516 162.759964,283.264984 146.965134,287.837524 
	C129.408829,292.920013 111.754433,297.543121 93.304047,298.048523 
	C87.506142,298.207336 81.719154,299.173096 75.929657,299.149933 
	C61.524014,299.092377 47.012028,299.657257 32.750278,298.087097 
	C22.000366,296.903656 11.571674,292.802460 1.000002,290.000000 
z"/>
<path fill="#FFF176" opacity="1.000000" stroke="none" 
	d="
M1.000002,290.468628 
	C11.571674,292.802460 22.000366,296.903656 32.750278,298.087097 
	C47.012028,299.657257 61.524014,299.092377 75.929657,299.149933 
	C81.719154,299.173096 87.506142,298.207336 93.304047,298.048523 
	C111.754433,297.543121 129.408829,292.920013 146.965134,287.837524 
	C162.759964,283.264984 178.493118,278.478516 194.235306,273.726196 
	C196.777695,272.958679 199.170929,271.680908 201.725708,270.973328 
	C218.316605,266.378357 234.749237,260.927155 251.602768,257.660645 
	C263.814453,255.293823 276.051788,257.150970 287.728241,263.493622 
	C298.173767,269.167633 309.574982,273.395844 320.965332,276.942657 
	C337.746948,282.168213 354.664642,287.783661 371.951660,290.315399 
	C387.725098,292.625458 404.071533,291.338654 420.156769,291.085693 
	C429.921478,290.932159 439.778259,290.410400 449.404663,288.871643 
	C476.059875,284.610809 503.050598,282.388092 529.041992,274.065674 
	C544.815002,269.015198 561.059143,264.873962 577.403137,262.309204 
	C598.392517,259.015503 619.335022,260.345184 639.884155,267.289642 
	C660.182617,274.149353 680.728821,280.428955 701.478638,285.743896 
	C714.237488,289.012054 727.535156,290.424713 740.679443,291.858368 
	C750.397339,292.918304 760.259521,292.631836 770.054993,293.008026 
	C799.294922,294.130981 827.412598,288.220886 855.444580,280.553680 
	C873.330872,275.661499 891.802002,272.932953 909.963013,269.012177 
	C925.209412,265.720642 940.424805,262.265137 955.581238,258.583344 
	C966.222168,255.998474 976.640015,252.427719 987.344299,250.191544 
	C997.042908,248.165436 1006.960815,246.935608 1016.845154,246.131302 
	C1024.791870,245.484650 1032.878784,246.543442 1040.821533,245.873718 
	C1053.366089,244.815948 1064.744629,248.212296 1076.054321,252.969772 
	C1096.582886,261.605072 1117.028687,270.499725 1137.891724,278.256836 
	C1154.375488,284.385620 1171.248291,289.699554 1188.292358,294.017273 
	C1202.514648,297.620178 1216.786621,301.322449 1231.854126,301.225739 
	C1247.640869,301.124420 1262.513672,298.119415 1276.928711,292.049683 
	C1277.987793,291.603729 1279.131592,291.359497 1280.618042,291.010742 
	C1281.000000,328.020905 1281.000000,365.041779 1280.618164,402.540894 
	C1279.131836,403.358398 1277.986084,403.600952 1276.929077,404.051575 
	C1262.526733,410.191040 1247.602417,412.991882 1231.853271,413.218597 
	C1217.257324,413.428741 1203.490112,409.835388 1189.758057,406.228790 
	C1172.269409,401.635620 1154.869385,396.439484 1137.890381,390.244659 
	C1119.642822,383.587067 1101.863281,375.620239 1083.998779,367.947235 
	C1067.946899,361.052856 1051.693237,356.038330 1033.828857,357.903870 
	C1020.813293,359.263062 1007.528625,358.703979 994.686462,360.892548 
	C979.693542,363.447693 965.074463,368.156250 950.250061,371.752899 
	C937.025146,374.961517 923.778137,378.097687 910.475098,380.960358 
	C892.151489,384.903473 873.483459,387.546631 855.472290,392.572083 
	C827.447205,400.391663 799.276489,405.889832 770.076538,404.995850 
	C760.279541,404.695923 750.420959,404.917267 740.704102,403.858063 
	C727.554565,402.424622 714.273865,400.946991 701.487244,397.741821 
	C684.746704,393.545654 668.514404,387.365906 651.916077,382.547394 
	C631.160034,376.521851 610.328308,370.510559 588.264160,373.002991 
	C583.822144,373.504730 579.265869,373.556458 574.961975,374.622253 
	C554.808044,379.613220 534.806213,385.240692 514.585266,389.930206 
	C501.694061,392.919861 488.533691,394.781281 475.459229,396.937988 
	C465.489349,398.582520 455.491943,400.131775 445.456268,401.283569 
	C437.228821,402.227844 428.931549,402.925629 420.657013,403.021332 
	C404.738800,403.205383 388.585602,404.522217 372.955048,402.333191 
	C355.983185,399.956390 339.320160,394.691132 322.854889,389.608551 
	C310.823334,385.894592 298.801697,381.422272 287.740814,375.488800 
	C276.034424,369.209137 263.821655,367.301300 251.616241,369.658783 
	C234.762741,372.914001 218.332458,378.373505 201.742981,382.968658 
	C199.188583,383.676178 196.796265,384.955811 194.254089,385.722687 
	C178.346344,390.521271 162.441391,395.331970 146.489014,399.979034 
	C128.450912,405.233673 110.277939,409.774475 91.307022,410.061310 
	C85.843620,410.143921 80.387520,411.180756 74.930992,411.155334 
	C60.857780,411.089783 46.675518,411.655548 32.749672,410.083527 
	C21.999273,408.869965 11.571316,404.799988 0.999999,402.000000 
	C1.000000,364.979095 1.000000,327.958221 1.000002,290.468628 
z"/>
<path fill="#FFEF5E" opacity="1.000000" stroke="none" 
	d="
M0.999999,402.468658 
	C11.571316,404.799988 21.999273,408.869965 32.749672,410.083527 
	C46.675518,411.655548 60.857780,411.089783 74.930992,411.155334 
	C80.387520,411.180756 85.843620,410.143921 91.307022,410.061310 
	C110.277939,409.774475 128.450912,405.233673 146.489014,399.979034 
	C162.441391,395.331970 178.346344,390.521271 194.254089,385.722687 
	C196.796265,384.955811 199.188583,383.676178 201.742981,382.968658 
	C218.332458,378.373505 234.762741,372.914001 251.616241,369.658783 
	C263.821655,367.301300 276.034424,369.209137 287.740814,375.488800 
	C298.801697,381.422272 310.823334,385.894592 322.854889,389.608551 
	C339.320160,394.691132 355.983185,399.956390 372.955048,402.333191 
	C388.585602,404.522217 404.738800,403.205383 420.657013,403.021332 
	C428.931549,402.925629 437.228821,402.227844 445.456268,401.283569 
	C455.491943,400.131775 465.489349,398.582520 475.459229,396.937988 
	C488.533691,394.781281 501.694061,392.919861 514.585266,389.930206 
	C534.806213,385.240692 554.808044,379.613220 574.961975,374.622253 
	C579.265869,373.556458 583.822144,373.504730 588.264160,373.002991 
	C610.328308,370.510559 631.160034,376.521851 651.916077,382.547394 
	C668.514404,387.365906 684.746704,393.545654 701.487244,397.741821 
	C714.273865,400.946991 727.554565,402.424622 740.704102,403.858063 
	C750.420959,404.917267 760.279541,404.695923 770.076538,404.995850 
	C799.276489,405.889832 827.447205,400.391663 855.472290,392.572083 
	C873.483459,387.546631 892.151489,384.903473 910.475098,380.960358 
	C923.778137,378.097687 937.025146,374.961517 950.250061,371.752899 
	C965.074463,368.156250 979.693542,363.447693 994.686462,360.892548 
	C1007.528625,358.703979 1020.813293,359.263062 1033.828857,357.903870 
	C1051.693237,356.038330 1067.946899,361.052856 1083.998779,367.947235 
	C1101.863281,375.620239 1119.642822,383.587067 1137.890381,390.244659 
	C1154.869385,396.439484 1172.269409,401.635620 1189.758057,406.228790 
	C1203.490112,409.835388 1217.257324,413.428741 1231.853271,413.218597 
	C1247.602417,412.991882 1262.526733,410.191040 1276.929077,404.051575 
	C1277.986084,403.600952 1279.131836,403.358398 1280.618164,403.009583 
	C1281.000000,438.354218 1281.000000,473.708466 1280.588379,509.533112 
	C1279.192749,510.143097 1278.184448,510.188385 1277.228638,510.436401 
	C1263.909546,513.892517 1250.509277,514.977539 1236.760010,513.178955 
	C1228.635864,512.116211 1220.342407,512.345825 1212.124878,511.999451 
	C1207.315674,511.796722 1202.457031,511.967316 1197.706909,511.328705 
	C1188.846313,510.137482 1180.087769,508.153137 1171.216431,507.079742 
	C1150.764160,504.605225 1131.761475,498.108459 1114.030273,487.676788 
	C1102.589355,480.945801 1091.414429,473.666199 1078.106323,470.799622 
	C1074.574707,470.038910 1071.011353,468.684387 1067.895874,466.861877 
	C1054.841309,459.225281 1040.806030,460.086914 1026.736328,461.911743 
	C1015.892639,463.318146 1005.123474,465.319092 994.340942,467.171021 
	C987.045288,468.424072 979.891724,469.533356 972.731140,472.280884 
	C955.231995,478.995361 937.354736,484.949036 919.253296,489.805756 
	C901.494629,494.570618 882.995789,496.628113 865.314636,501.619385 
	C837.140869,509.572693 808.776917,514.907349 779.417053,513.994690 
	C769.787476,513.695374 760.097717,513.903137 750.546631,512.860962 
	C737.561707,511.444031 724.432495,510.039307 711.819275,506.839294 
	C693.638733,502.226776 675.863953,496.013245 657.920227,490.469360 
	C638.273254,484.399292 618.391357,479.999176 597.616089,482.011780 
	C593.495422,482.411011 589.276550,482.501495 585.293457,483.496857 
	C564.511719,488.689911 543.891724,494.568878 523.014160,499.325562 
	C509.474731,502.410370 495.632294,504.290222 481.850647,506.156555 
	C462.986542,508.711182 444.104187,511.535950 425.133423,512.797363 
	C400.312775,514.447632 375.510406,512.828674 351.724396,504.826233 
	C333.146606,498.576111 314.519714,492.122589 296.750610,483.943359 
	C285.252594,478.650726 273.663757,476.425415 261.992035,478.557373 
	C245.930771,481.491058 230.213333,486.472321 214.493439,491.071411 
	C190.257828,498.161896 166.164658,505.737732 141.973953,512.983765 
	C122.236427,518.895813 101.707222,519.305664 81.419502,520.810913 
	C53.458675,522.885559 26.338873,518.896484 1.000000,506.000000 
	C1.000000,471.645782 1.000000,437.291534 0.999999,402.468658 
z"/>
<path fill="#FFDB58" opacity="1.000000" stroke="none" 
	d="
M1.000000,506.468658 
	C26.338873,518.896484 53.458675,522.885559 81.419502,520.810913 
	C101.707222,519.305664 122.236427,518.895813 141.973953,512.983765 
	C166.164658,505.737732 190.257828,498.161896 214.493439,491.071411 
	C230.213333,486.472321 245.930771,481.491058 261.992035,478.557373 
	C273.663757,476.425415 285.252594,478.650726 296.750610,483.943359 
	C314.519714,492.122589 333.146606,498.576111 351.724396,504.826233 
	C375.510406,512.828674 400.312775,514.447632 425.133423,512.797363 
	C444.104187,511.535950 462.986542,508.711182 481.850647,506.156555 
	C495.632294,504.290222 509.474731,502.410370 523.014160,499.325562 
	C543.891724,494.568878 564.511719,488.689911 585.293457,483.496857 
	C589.276550,482.501495 593.495422,482.411011 597.616089,482.011780 
	C618.391357,479.999176 638.273254,484.399292 657.920227,490.469360 
	C675.863953,496.013245 693.638733,502.226776 711.819275,506.839294 
	C724.432495,510.039307 737.561707,511.444031 750.546631,512.860962 
	C760.097717,513.903137 769.787476,513.695374 779.417053,513.994690 
	C808.776917,514.907349 837.140869,509.572693 865.314636,501.619385 
	C882.995789,496.628113 901.494629,494.570618 919.253296,489.805756 
	C937.354736,484.949036 955.231995,478.995361 972.731140,472.280884 
	C979.891724,469.533356 987.045288,468.424072 994.340942,467.171021 
	C1005.123474,465.319092 1015.892639,463.318146 1026.736328,461.911743 
	C1040.806030,460.086914 1054.841309,459.225281 1067.895874,466.861877 
	C1071.011353,468.684387 1074.574707,470.038910 1078.106323,470.799622 
	C1091.414429,473.666199 1102.589355,480.945801 1114.030273,487.676788 
	C1131.761475,498.108459 1150.764160,504.605225 1171.216431,507.079742 
	C1180.087769,508.153137 1188.846313,510.137482 1197.706909,511.328705 
	C1202.457031,511.967316 1207.315674,511.796722 1212.124878,511.999451 
	C1220.342407,512.345825 1228.635864,512.116211 1236.760010,513.178955 
	C1250.509277,514.977539 1263.909546,513.892517 1277.228638,510.436401 
	C1278.184448,510.188385 1279.192749,510.143097 1280.588379,510.001770 
	C1281.000000,531.299500 1281.000000,552.598938 1281.000000,574.000000 
	C1210.645752,574.000000 1140.291504,574.000000 1069.783569,573.705078 
	C1067.087769,572.111389 1064.353149,571.087402 1062.036743,569.466125 
	C1052.074951,562.493713 1040.695923,564.486328 1030.030396,565.339966 
	C1016.561218,566.417908 1003.262695,569.658691 989.910095,572.074951 
	C989.181152,572.206787 988.632507,573.335327 988.000000,574.000000 
	C659.000000,574.000000 330.000000,574.000000 1.000000,574.000000 
	C1.000000,551.585266 1.000000,529.261292 1.000000,506.468658 
z"/>
<path fill="#000000" opacity="1.000000" stroke="none" 
	d="
M1246.531372,1.000015 
	C1246.368774,1.666011 1245.835083,2.768053 1245.091919,2.934484 
	C1224.168579,7.619316 1206.443604,17.909752 1191.975952,33.628334 
	C1183.116577,43.253586 1176.974487,54.648556 1172.004883,66.703865 
	C1171.098633,68.902222 1169.077026,72.826164 1168.633789,72.682091 
	C1165.274658,71.590057 1161.602905,70.280571 1159.134399,67.894760 
	C1155.058350,63.955189 1152.198975,58.762741 1148.148926,54.789150 
	C1131.758179,38.708000 1112.558472,28.065800 1089.449707,24.939306 
	C1061.130981,21.107962 1035.512695,27.194117 1012.755676,44.723057 
	C1011.813354,45.448914 1010.442078,45.851788 1009.231201,45.958828 
	C997.143005,47.027466 984.955444,47.383572 972.973938,49.148849 
	C955.090027,51.783756 937.386414,55.139610 919.993469,60.673954 
	C903.151062,66.033142 885.568787,69.101341 868.265259,72.968895 
	C843.214172,78.568130 818.031799,83.608673 793.080994,89.616684 
	C778.678589,93.084686 763.993286,95.497887 750.102112,90.744545 
	C720.321533,80.554085 689.847168,73.060051 659.415955,65.419884 
	C648.125244,62.585201 636.196228,62.095058 624.510376,61.095016 
	C615.128601,60.292156 605.644470,59.688641 596.258789,60.128632 
	C573.722107,61.185120 551.052063,61.589481 528.990906,67.085533 
	C506.646240,72.652237 484.444122,78.791756 462.094360,84.337143 
	C455.967560,85.857307 449.526825,86.089043 443.245270,87.014519 
	C435.859375,88.102699 428.500610,89.378212 421.108154,90.416397 
	C418.181396,90.827431 415.153931,90.564590 412.243652,91.042831 
	C395.681335,93.764511 382.257507,86.406403 368.669769,78.452225 
	C355.392059,70.679558 340.847473,65.689308 325.637939,63.043236 
	C313.003784,60.845207 300.366638,58.199390 287.619080,57.245152 
	C274.183777,56.239433 260.610718,56.777954 247.107956,57.085361 
	C239.590485,57.256512 232.008682,57.836697 224.606064,59.107445 
	C211.392609,61.375698 198.224930,64.013130 185.163925,67.039284 
	C170.736694,70.381996 156.273743,73.765877 142.147171,78.162643 
	C123.468590,83.976181 105.101646,90.790993 86.644485,97.160347 
	C63.454056,72.387749 35.443611,60.487961 1.468382,62.000443 
	C1.000000,41.673473 1.000000,21.346943 1.000000,1.000000 
	C416.020905,1.000000 831.041809,1.000000 1246.531372,1.000015 
z"/>
<path fill="#000000" opacity="1.000000" stroke="none" 
	d="
M988.468628,574.000000 
	C988.632507,573.335327 989.181152,572.206787 989.910095,572.074951 
	C1003.262695,569.658691 1016.561218,566.417908 1030.030396,565.339966 
	C1040.695923,564.486328 1052.074951,562.493713 1062.036743,569.466125 
	C1064.353149,571.087402 1067.087769,572.111389 1069.314941,573.705078 
	C1042.312500,574.000000 1015.624878,574.000000 988.468628,574.000000 
z"/>
</svg>