<svg width="1280" height="553" viewBox="0 0 1280 553" fill="none" xmlns="http://www.w3.org/2000/svg">
<path d="M1266.64 425.14C1267.84 428.602 1271.43 436.68 1275.33 445.959C1282.56 463.167 1274.48 490.239 1269.64 499.594C1261.46 515.401 1243.59 496.411 1243.59 513.264C1243.59 526.698 1207.59 499.206 1207.59 507.159C1207.59 513.264 1201.12 517.275 1187.59 513.264C1179.44 510.848 1168.18 511.427 1159.68 507.159C1151.88 503.24 1141.23 496.639 1132.98 491.196C1124.75 485.77 1107.42 481.857 1097.59 478.264C1087.77 474.671 1086.12 467.636 1075.29 463.964C1065.68 460.705 1079.33 463.497 1018.09 463.964C998.778 464.112 956.272 477.297 956.272 469.808C956.272 458.599 933.725 479.972 921.811 484.22C910.519 488.245 899.511 493.227 884.724 496.052C862.633 500.272 853.046 501.955 843.151 504.15C834.379 506.096 826.333 508.722 805.761 514.214C795.467 516.962 758.608 518.906 732.943 514.592C720.794 512.55 713.927 508.429 700.789 504.219C690.59 500.95 677.735 497.81 667.754 495.316C655.165 492.169 641.481 487.786 630.084 485.886C619.984 484.202 588.643 484.365 567.783 486.367C554.511 487.64 545.44 491.305 536.418 493.463C521.925 496.929 506.521 499.937 492.035 504.496C478.43 508.778 468.79 508.59 458.311 510.172C446.684 511.928 438.583 515.365 397.076 516.195C376.628 516.604 354.686 506.572 341.74 502.35C330.487 498.681 324.136 491.793 315.355 488.122C306.023 484.22 294.948 485.174 286.464 482.949C262.023 476.538 220.445 484.333 208.221 488.864C195.511 493.574 183.231 492.385 173.973 498.022C165.17 503.383 155.423 503.812 146.136 507.118C135.29 510.978 117.778 516.481 104.09 519.886C91.8886 522.921 81.1286 522.22 65.4439 523.868C51.6292 525.32 40.9193 522.745 36.2291 519.319C24.4712 509.589 14.3923 498.622 13.1867 495.152C12.5794 493.404 11.9811 491.682 9.57392 486.437" stroke="#FFDB58" stroke-width="200" stroke-linecap="round"/>
<path d="M1270.64 320.14C1271.84 323.602 1275.43 331.68 1279.33 340.959C1286.56 358.167 1278.48 385.239 1273.64 394.594C1265.46 410.401 1247.59 391.411 1247.59 408.264C1247.59 421.698 1211.59 394.206 1211.59 402.159C1211.59 408.264 1205.12 412.275 1191.59 408.264C1183.44 405.848 1172.18 406.427 1163.68 402.159C1155.88 398.24 1145.23 391.639 1136.98 386.196C1128.75 380.77 1111.42 376.857 1101.59 373.264C1091.77 369.671 1090.12 362.636 1079.29 358.964C1069.68 355.705 1083.33 358.497 1022.09 358.964C1002.78 359.112 960.272 372.297 960.272 364.808C960.272 353.599 937.725 374.972 925.811 379.22C914.519 383.245 903.511 388.227 888.724 391.052C866.633 395.272 857.046 396.955 847.151 399.15C838.379 401.096 830.333 403.722 809.761 409.214C799.467 411.962 762.608 413.906 736.943 409.592C724.794 407.55 717.927 403.429 704.789 399.219C694.59 395.95 681.735 392.81 671.754 390.316C659.165 387.169 645.481 382.786 634.084 380.886C623.984 379.202 592.643 379.365 571.783 381.367C558.511 382.64 549.44 386.305 540.418 388.463C525.925 391.929 510.521 394.937 496.035 399.496C482.43 403.778 472.79 403.59 462.311 405.172C450.684 406.928 442.583 410.365 401.076 411.195C380.628 411.604 358.686 401.572 345.74 397.35C334.487 393.681 328.136 386.793 319.355 383.122C310.023 379.22 298.948 380.174 290.464 377.949C266.023 371.538 224.445 379.333 212.221 383.864C199.511 388.574 187.231 387.385 177.973 393.022C169.17 398.383 159.423 398.812 150.136 402.118C139.29 405.978 121.778 411.481 108.09 414.886C95.8886 417.921 85.1286 417.22 69.4439 418.868C55.6292 420.32 44.9193 417.745 40.2291 414.319C28.4712 404.589 18.3923 393.622 17.1867 390.152C16.5794 388.404 15.9811 386.682 13.5739 381.437" stroke="#FFEF5E" stroke-width="200" stroke-linecap="round"/>
<path d="M1257.64 212.14C1258.84 215.601 1262.43 223.679 1266.33 232.959C1273.56 250.166 1265.48 277.239 1260.64 286.594C1252.46 302.401 1234.59 283.41 1234.59 300.264C1234.59 313.698 1218 321 1198.59 294.158C1195.01 289.211 1224.5 320.5 1178.59 300.263C1170.81 296.835 1160.5 295.419 1152 291.15C1144.2 287.232 1133.43 281.111 1123.98 278.196C1112 274.5 1098.42 268.856 1088.59 265.264C1078.77 261.671 1058.5 209.5 1066.29 250.964C1068.17 260.937 1073.24 256.34 1012 256.808C992.688 256.955 955.437 262.44 948.501 265.264C927.73 273.719 926.794 269.974 915.501 274C904.209 278.025 890.511 280.227 875.724 283.052C853.633 287.272 844.046 288.955 834.151 291.15C825.379 293.096 817.333 295.721 796.761 301.213C786.467 303.962 749.608 305.905 723.942 301.591C711.794 299.549 704.927 295.429 691.789 291.218C681.59 287.95 668.735 284.81 658.754 282.315C646.165 279.169 632.481 274.785 621.084 272.885C610.984 271.202 579.643 271.365 558.783 273.366C545.511 274.64 536.44 278.304 527.418 280.462C512.925 283.929 497.521 286.937 483.035 291.496C469.43 295.778 459.79 295.589 449.311 297.172C437.684 298.927 429.583 302.365 388.076 303.195C367.628 303.604 345.686 293.571 332.74 289.35C321.487 285.681 315.136 278.793 306.355 275.122C297.023 271.22 285.948 272.174 277.464 269.949C253.023 263.538 211.445 271.333 199.221 275.863C186.511 280.574 174.231 279.384 164.973 285.022C156.169 290.383 146.423 290.812 137.136 294.117C126.289 297.978 108.778 303.481 95.0896 306.886C82.8885 309.921 72.1285 309.22 56.4438 310.868C42.6291 312.32 31.9193 309.745 27.229 306.319C15.4711 296.588 5.39222 285.622 4.18664 282.152C3.57932 280.404 2.98108 278.682 0.573859 273.436" stroke="#FFF176" stroke-width="200" stroke-linecap="round"/>
<path d="M1257.64 100.14C1258.84 103.601 1262.43 111.679 1266.33 120.959C1273.56 138.166 1265.48 165.239 1260.64 174.594C1252.46 190.401 1234.59 171.41 1234.59 188.264C1234.59 201.698 1218 209 1198.59 182.158C1195.01 177.211 1224.5 208.5 1178.59 188.263C1170.81 184.835 1160.5 183.419 1152 179.15C1144.2 175.232 1133.43 169.111 1123.98 166.196C1112 162.5 1098.42 156.856 1088.59 153.264C1078.77 149.671 1058.5 97.4996 1066.29 138.964C1068.17 148.937 1073.24 144.34 1012 144.808C992.688 144.955 955.437 150.44 948.501 153.264C927.73 161.719 926.794 157.974 915.501 162C904.209 166.025 890.511 168.227 875.724 171.052C853.633 175.272 844.046 176.955 834.151 179.15C825.379 181.096 817.333 183.721 796.761 189.213C786.467 191.962 749.608 193.905 723.942 189.591C711.794 187.549 704.927 183.429 691.789 179.218C681.59 175.95 668.735 172.81 658.754 170.315C646.165 167.169 632.481 162.785 621.084 160.885C610.984 159.202 579.643 159.365 558.783 161.366C545.511 162.64 536.44 166.304 527.418 168.462C512.925 171.929 497.521 174.937 483.035 179.496C469.43 183.778 459.79 183.589 449.311 185.172C437.684 186.927 429.583 190.365 388.076 191.195C367.628 191.604 345.686 181.571 332.74 177.35C321.487 173.681 315.136 166.793 306.355 163.122C297.023 159.22 285.948 160.174 277.464 157.949C253.023 151.538 211.445 159.333 199.221 163.863C186.511 168.574 174.231 167.384 164.973 173.022C156.169 178.383 146.423 178.812 137.136 182.117C126.289 185.978 108.778 191.481 95.0896 194.886C82.8885 197.921 72.1285 197.22 56.4438 198.868C42.6291 200.32 31.9193 197.745 27.229 194.319C15.4711 184.588 5.39222 173.622 4.18664 170.152C3.57932 168.404 2.98108 166.682 0.573859 161.436" stroke="#FFF493" stroke-width="200" stroke-linecap="round"/>
</svg>
