<svg width="1280" height="563" viewBox="0 0 1280 563" fill="none" xmlns="http://www.w3.org/2000/svg">
<path d="M1281.64 425.14C1282.84 428.602 1286.43 436.68 1290.33 445.959C1297.56 463.167 1289.48 490.239 1284.64 499.594C1276.46 515.401 1258.59 496.411 1258.59 513.264C1258.59 526.698 1222.59 499.206 1222.59 507.159C1222.59 513.264 1216.12 517.275 1202.59 513.264C1194.44 510.848 1183.18 511.427 1174.68 507.159C1166.88 503.24 1156.23 496.639 1147.98 491.196C1139.75 485.77 1122.42 481.857 1112.59 478.264C1102.77 474.671 1101.12 467.636 1090.29 463.964C1080.68 460.705 1094.33 463.497 1033.09 463.964C1013.78 464.112 971.272 477.297 971.272 469.808C971.272 458.599 948.725 479.972 936.811 484.22C925.519 488.245 914.511 493.227 899.724 496.052C877.633 500.272 868.046 501.955 858.151 504.15C849.379 506.096 841.333 508.722 820.761 514.214C810.467 516.962 773.608 518.906 747.943 514.592C735.794 512.55 728.927 508.429 715.789 504.219C705.59 500.95 692.735 497.81 682.754 495.316C670.165 492.169 656.481 487.786 645.084 485.886C634.984 484.202 603.643 484.365 582.783 486.367C569.511 487.64 560.44 491.305 551.418 493.463C536.925 496.929 521.521 499.937 507.035 504.496C493.43 508.778 483.79 508.59 473.311 510.172C461.684 511.928 453.583 515.365 412.076 516.195C391.628 516.604 369.686 506.572 356.74 502.35C345.487 498.681 339.136 491.793 330.355 488.122C321.023 484.22 309.948 485.174 301.464 482.949C277.023 476.538 235.445 484.333 223.221 488.864C210.511 493.574 198.231 492.385 188.973 498.022C180.17 503.383 170.423 503.812 161.136 507.118C150.29 510.978 132.778 516.481 119.09 519.886C106.889 522.921 96.1286 522.22 80.4439 523.868C66.6292 525.32 55.9193 522.745 51.2291 519.319C39.4712 509.589 29.3923 498.622 28.1867 495.152C27.5794 493.404 26.9811 491.682 24.5739 486.437" stroke="#FAE8AD" stroke-width="200" stroke-linecap="round"/>
<path d="M1282.64 321.14C1283.84 324.602 1287.43 332.68 1291.33 341.959C1298.56 359.167 1290.48 386.239 1285.64 395.594C1277.46 411.401 1259.59 392.411 1259.59 409.264C1259.59 422.698 1223.59 395.206 1223.59 403.159C1223.59 409.264 1217.12 413.275 1203.59 409.264C1195.44 406.848 1184.18 407.427 1175.68 403.159C1167.88 399.24 1157.23 392.639 1148.98 387.196C1140.75 381.77 1123.42 377.857 1113.59 374.264C1103.77 370.671 1102.12 363.636 1091.29 359.964C1081.68 356.705 1095.33 359.497 1034.09 359.964C1014.78 360.112 972.272 373.297 972.272 365.808C972.272 354.599 949.725 375.972 937.811 380.22C926.519 384.245 915.511 389.227 900.724 392.052C878.633 396.272 869.046 397.955 859.151 400.15C850.379 402.096 842.333 404.722 821.761 410.214C811.467 412.962 774.608 414.906 748.943 410.592C736.794 408.55 729.927 404.429 716.789 400.219C706.59 396.95 693.735 393.81 683.754 391.316C671.165 388.169 657.481 383.786 646.084 381.886C635.984 380.202 604.643 380.365 583.783 382.367C570.511 383.64 561.44 387.305 552.418 389.463C537.925 392.929 522.521 395.937 508.035 400.496C494.43 404.778 484.79 404.59 474.311 406.172C462.684 407.928 454.583 411.365 413.076 412.195C392.628 412.604 370.686 402.572 357.74 398.35C346.487 394.681 340.136 387.793 331.355 384.122C322.023 380.22 310.948 381.174 302.464 378.949C278.023 372.538 236.445 380.333 224.221 384.864C211.511 389.574 199.231 388.385 189.973 394.022C181.17 399.383 171.423 399.812 162.136 403.118C151.29 406.978 133.778 412.481 120.09 415.886C107.889 418.921 97.1286 418.22 81.4439 419.868C67.6292 421.32 56.9193 418.745 52.2291 415.319C40.4712 405.589 30.3923 394.622 29.1867 391.152C28.5794 389.404 27.9811 387.682 25.5739 382.437" stroke="#FFF1C4" stroke-width="200" stroke-linecap="round"/>
<path d="M1272.64 212.14C1273.84 215.601 1277.43 223.679 1281.33 232.959C1288.56 250.166 1280.48 277.239 1275.64 286.594C1267.46 302.401 1249.59 283.41 1249.59 300.264C1249.59 313.698 1233 321 1213.59 294.158C1210.01 289.211 1239.5 320.5 1193.59 300.263C1185.81 296.835 1175.5 295.419 1167 291.15C1159.2 287.232 1148.43 281.111 1138.98 278.196C1127 274.5 1113.42 268.856 1103.59 265.264C1093.77 261.671 1073.5 209.5 1081.29 250.964C1083.17 260.937 1088.24 256.34 1027 256.808C1007.69 256.955 970.437 262.44 963.501 265.264C942.73 273.719 941.794 269.974 930.501 274C919.209 278.025 905.511 280.227 890.724 283.052C868.633 287.272 859.046 288.955 849.151 291.15C840.379 293.096 832.333 295.721 811.761 301.213C801.467 303.962 764.608 305.905 738.942 301.591C726.794 299.549 719.927 295.429 706.789 291.218C696.59 287.95 683.735 284.81 673.754 282.315C661.165 279.169 647.481 274.785 636.084 272.885C625.984 271.202 594.643 271.365 573.783 273.366C560.511 274.64 551.44 278.304 542.418 280.462C527.925 283.929 512.521 286.937 498.035 291.496C484.43 295.778 474.79 295.589 464.311 297.172C452.684 298.927 444.583 302.365 403.076 303.195C382.628 303.604 360.686 293.571 347.74 289.35C336.487 285.681 330.136 278.793 321.355 275.122C312.023 271.22 300.948 272.174 292.464 269.949C268.023 263.538 226.445 271.333 214.221 275.863C201.511 280.574 189.231 279.384 179.973 285.022C171.169 290.383 161.423 290.812 152.136 294.117C141.289 297.978 123.778 303.481 110.09 306.886C97.8885 309.921 87.1285 309.22 71.4438 310.868C57.6291 312.32 46.9193 309.745 42.229 306.319C30.4711 296.588 20.3922 285.622 19.1866 282.152C18.5793 280.404 17.9811 278.682 15.5739 273.436" stroke="#FFF7DE" stroke-width="200" stroke-linecap="round"/>
<path d="M1272.64 100.14C1273.84 103.601 1277.43 111.679 1281.33 120.959C1288.56 138.166 1280.48 165.239 1275.64 174.594C1267.46 190.401 1249.59 171.41 1249.59 188.264C1249.59 201.698 1233 209 1213.59 182.158C1210.01 177.211 1239.5 208.5 1193.59 188.263C1185.81 184.835 1175.5 183.419 1167 179.15C1159.2 175.232 1148.43 169.111 1138.98 166.196C1127 162.5 1113.42 156.856 1103.59 153.264C1093.77 149.671 1073.5 97.4996 1081.29 138.964C1083.17 148.937 1088.24 144.34 1027 144.808C1007.69 144.955 970.437 150.44 963.501 153.264C942.73 161.719 941.794 157.974 930.501 162C919.209 166.025 905.511 168.227 890.724 171.052C868.633 175.272 859.046 176.955 849.151 179.15C840.379 181.096 832.333 183.721 811.761 189.213C801.467 191.962 764.608 193.905 738.942 189.591C726.794 187.549 719.927 183.429 706.789 179.218C696.59 175.95 683.735 172.81 673.754 170.315C661.165 167.169 647.481 162.785 636.084 160.885C625.984 159.202 594.643 159.365 573.783 161.366C560.511 162.64 551.44 166.304 542.418 168.462C527.925 171.929 512.521 174.937 498.035 179.496C484.43 183.778 474.79 183.589 464.311 185.172C452.684 186.927 444.583 190.365 403.076 191.195C382.628 191.604 360.686 181.571 347.74 177.35C336.487 173.681 330.136 166.793 321.355 163.122C312.023 159.22 300.948 160.174 292.464 157.949C268.023 151.538 226.445 159.333 214.221 163.863C201.511 168.574 189.231 167.384 179.973 173.022C171.169 178.383 161.423 178.812 152.136 182.117C141.289 185.978 123.778 191.481 110.09 194.886C97.8885 197.921 87.1285 197.22 71.4438 198.868C57.6291 200.32 46.9193 197.745 42.229 194.319C30.4711 184.588 20.3922 173.622 19.1866 170.152C18.5793 168.404 17.9811 166.682 15.5739 161.436" stroke="#F7F5E0" stroke-width="200" stroke-linecap="round"/>
</svg>
