<svg width="1280" height="573" viewBox="0 0 1280 573" fill="none" xmlns="http://www.w3.org/2000/svg">
<path d="M1274.64 425.14C1275.84 428.602 1279.43 436.68 1283.33 445.959C1290.56 463.167 1282.48 490.239 1277.64 499.594C1269.46 515.401 1251.59 496.411 1251.59 513.264C1251.59 526.698 1215.59 499.206 1215.59 507.159C1215.59 513.264 1209.12 517.275 1195.59 513.264C1187.44 510.848 1176.18 511.427 1167.68 507.159C1159.88 503.24 1149.23 496.639 1140.98 491.196C1132.75 485.77 1115.42 481.857 1105.59 478.264C1095.77 474.671 1094.12 467.636 1083.29 463.964C1073.68 460.705 1087.33 463.497 1026.09 463.964C1006.78 464.112 964.272 477.297 964.272 469.808C964.272 458.599 941.725 479.972 929.811 484.22C918.519 488.245 907.511 493.227 892.724 496.052C870.633 500.272 861.046 501.955 851.151 504.15C842.379 506.096 834.333 508.722 813.761 514.214C803.467 516.962 766.608 518.906 740.943 514.592C728.794 512.55 721.927 508.429 708.789 504.219C698.59 500.95 685.735 497.81 675.754 495.316C663.165 492.169 649.481 487.786 638.084 485.886C627.984 484.202 596.643 484.365 575.783 486.367C562.511 487.64 553.44 491.305 544.418 493.463C529.925 496.929 514.521 499.937 500.035 504.496C486.43 508.778 476.79 508.59 466.311 510.172C454.684 511.928 446.583 515.365 405.076 516.195C384.628 516.604 362.686 506.572 349.74 502.35C338.487 498.681 332.136 491.793 323.355 488.122C314.023 484.22 302.948 485.174 294.464 482.949C270.023 476.538 228.445 484.333 216.221 488.864C203.511 493.574 191.231 492.385 181.973 498.022C173.17 503.383 163.423 503.812 154.136 507.118C143.29 510.978 125.778 516.481 112.09 519.886C99.8886 522.921 89.1286 522.22 73.4439 523.868C59.6292 525.32 48.9193 522.745 44.2291 519.319C32.4712 509.589 22.3923 498.622 21.1867 495.152C20.5794 493.404 19.9811 491.682 17.5739 486.437" stroke="#FFDB58" stroke-width="200" stroke-linecap="round"/>
<path d="M1275.64 321.14C1276.84 324.602 1280.43 332.68 1284.33 341.959C1291.56 359.167 1283.48 386.239 1278.64 395.594C1270.46 411.401 1252.59 392.411 1252.59 409.264C1252.59 422.698 1216.59 395.206 1216.59 403.159C1216.59 409.264 1210.12 413.275 1196.59 409.264C1188.44 406.848 1177.18 407.427 1168.68 403.159C1160.88 399.24 1150.23 392.639 1141.98 387.196C1133.75 381.77 1116.42 377.857 1106.59 374.264C1096.77 370.671 1095.12 363.636 1084.29 359.964C1074.68 356.705 1088.33 359.497 1027.09 359.964C1007.78 360.112 965.272 373.297 965.272 365.808C965.272 354.599 942.725 375.972 930.811 380.22C919.519 384.245 908.511 389.227 893.724 392.052C871.633 396.272 862.046 397.955 852.151 400.15C843.379 402.096 835.333 404.722 814.761 410.214C804.467 412.962 767.608 414.906 741.943 410.592C729.794 408.55 722.927 404.429 709.789 400.219C699.59 396.95 686.735 393.81 676.754 391.316C664.165 388.169 650.481 383.786 639.084 381.886C628.984 380.202 597.643 380.365 576.783 382.367C563.511 383.64 554.44 387.305 545.418 389.463C530.925 392.929 515.521 395.937 501.035 400.496C487.43 404.778 477.79 404.59 467.311 406.172C455.684 407.928 447.583 411.365 406.076 412.195C385.628 412.604 363.686 402.572 350.74 398.35C339.487 394.681 333.136 387.793 324.355 384.122C315.023 380.22 303.948 381.174 295.464 378.949C271.023 372.538 229.445 380.333 217.221 384.864C204.511 389.574 192.231 388.385 182.973 394.022C174.17 399.383 164.423 399.812 155.136 403.118C144.29 406.978 126.778 412.481 113.09 415.886C100.889 418.921 90.1286 418.22 74.4439 419.868C60.6292 421.32 49.9193 418.745 45.2291 415.319C33.4712 405.589 23.3923 394.622 22.1867 391.152C21.5794 389.404 20.9811 387.682 18.5739 382.437" stroke="#FFEF5E" stroke-width="200" stroke-linecap="round"/>
<path d="M1265.64 212.14C1266.84 215.601 1270.43 223.679 1274.33 232.959C1281.56 250.166 1273.48 277.239 1268.64 286.594C1260.46 302.401 1242.59 283.41 1242.59 300.264C1242.59 313.698 1226 321 1206.59 294.158C1203.01 289.211 1232.5 320.5 1186.59 300.263C1178.81 296.835 1168.5 295.419 1160 291.15C1152.2 287.232 1141.43 281.111 1131.98 278.196C1120 274.5 1106.42 268.856 1096.59 265.264C1086.77 261.671 1066.5 209.5 1074.29 250.964C1076.17 260.937 1081.24 256.34 1020 256.808C1000.69 256.955 963.437 262.44 956.501 265.264C935.73 273.719 934.794 269.974 923.501 274C912.209 278.025 898.511 280.227 883.724 283.052C861.633 287.272 852.046 288.955 842.151 291.15C833.379 293.096 825.333 295.721 804.761 301.213C794.467 303.962 757.608 305.905 731.942 301.591C719.794 299.549 712.927 295.429 699.789 291.218C689.59 287.95 676.735 284.81 666.754 282.315C654.165 279.169 640.481 274.785 629.084 272.885C618.984 271.202 587.643 271.365 566.783 273.366C553.511 274.64 544.44 278.304 535.418 280.462C520.925 283.929 505.521 286.937 491.035 291.496C477.43 295.778 467.79 295.589 457.311 297.172C445.684 298.927 437.583 302.365 396.076 303.195C375.628 303.604 353.686 293.571 340.74 289.35C329.487 285.681 323.136 278.793 314.355 275.122C305.023 271.22 293.948 272.174 285.464 269.949C261.023 263.538 219.445 271.333 207.221 275.863C194.511 280.574 182.231 279.384 172.973 285.022C164.169 290.383 154.423 290.812 145.136 294.117C134.289 297.978 116.778 303.481 103.09 306.886C90.8885 309.921 80.1285 309.22 64.4438 310.868C50.6291 312.32 39.9193 309.745 35.229 306.319C23.4711 296.588 13.3922 285.622 12.1866 282.152C11.5793 280.404 10.9811 278.682 8.57386 273.436" stroke="#FFF176" stroke-width="200" stroke-linecap="round"/>
<path d="M1265.64 100.14C1266.84 103.601 1270.43 111.679 1274.33 120.959C1281.56 138.166 1273.48 165.239 1268.64 174.594C1260.46 190.401 1242.59 171.41 1242.59 188.264C1242.59 201.698 1226 209 1206.59 182.158C1203.01 177.211 1232.5 208.5 1186.59 188.263C1178.81 184.835 1168.5 183.419 1160 179.15C1152.2 175.232 1141.43 169.111 1131.98 166.196C1120 162.5 1106.42 156.856 1096.59 153.264C1086.77 149.671 1066.5 97.4996 1074.29 138.964C1076.17 148.937 1081.24 144.34 1020 144.808C1000.69 144.955 963.437 150.44 956.501 153.264C935.73 161.719 934.794 157.974 923.501 162C912.209 166.025 898.511 168.227 883.724 171.052C861.633 175.272 852.046 176.955 842.151 179.15C833.379 181.096 825.333 183.721 804.761 189.213C794.467 191.962 757.608 193.905 731.942 189.591C719.794 187.549 712.927 183.429 699.789 179.218C689.59 175.95 676.735 172.81 666.754 170.315C654.165 167.169 640.481 162.785 629.084 160.885C618.984 159.202 587.643 159.365 566.783 161.366C553.511 162.64 544.44 166.304 535.418 168.462C520.925 171.929 505.521 174.937 491.035 179.496C477.43 183.778 467.79 183.589 457.311 185.172C445.684 186.927 437.583 190.365 396.076 191.195C375.628 191.604 353.686 181.571 340.74 177.35C329.487 173.681 323.136 166.793 314.355 163.122C305.023 159.22 293.948 160.174 285.464 157.949C261.023 151.538 219.445 159.333 207.221 163.863C194.511 168.574 182.231 167.384 172.973 173.022C164.169 178.383 154.423 178.812 145.136 182.117C134.289 185.978 116.778 191.481 103.09 194.886C90.8885 197.921 80.1285 197.22 64.4438 198.868C50.6291 200.32 39.9193 197.745 35.229 194.319C23.4711 184.588 13.3922 173.622 12.1866 170.152C11.5793 168.404 10.9811 166.682 8.57386 161.436" stroke="#FFF493" stroke-width="200" stroke-linecap="round"/>
</svg>
