<svg width="1280" height="625" viewBox="0 0 1280 625" fill="none" xmlns="http://www.w3.org/2000/svg">
<path d="M1259.64 425.14C1260.84 428.602 1264.43 436.68 1268.33 445.959C1275.56 463.167 1267.48 490.239 1262.64 499.594C1254.46 515.401 1236.59 496.411 1236.59 513.264C1236.59 526.698 1200.59 499.206 1200.59 507.159C1200.59 513.264 1194.12 517.275 1180.59 513.264C1172.44 510.848 1161.18 511.427 1152.68 507.159C1144.88 503.24 1134.23 496.639 1125.98 491.196C1117.75 485.77 1100.42 481.857 1090.59 478.264C1080.77 474.671 1079.12 467.636 1068.29 463.964C1058.68 460.705 1072.33 463.497 1011.09 463.964C991.777 464.112 949.272 477.297 949.272 469.808C949.272 458.599 926.724 479.972 914.811 484.22C903.519 488.245 892.511 493.227 877.723 496.052C855.632 500.272 846.046 501.955 836.151 504.15C827.379 506.096 819.332 508.722 798.761 514.214C788.467 516.962 751.608 518.906 725.942 514.592C713.794 512.55 706.927 508.429 693.789 504.219C683.589 500.95 670.735 497.81 660.754 495.316C648.165 492.169 634.48 487.786 623.083 485.886C612.984 484.202 581.643 484.365 560.782 486.367C547.51 487.64 538.44 491.305 529.417 493.463C514.925 496.929 499.521 499.937 485.034 504.496C471.429 508.778 461.79 508.59 451.31 510.172C439.683 511.928 431.582 515.365 390.076 516.195C369.627 516.604 347.685 506.572 334.739 502.35C323.487 498.681 317.136 491.793 308.354 488.122C299.022 484.22 287.947 485.174 279.464 482.949C255.022 476.538 213.445 484.333 201.22 488.864C188.511 493.574 176.23 492.385 166.973 498.022C158.169 503.383 148.423 503.812 139.135 507.118C128.289 510.978 110.778 516.481 97.0892 519.886C84.8881 522.921 74.1281 522.22 58.4434 523.868C44.6287 525.32 33.9188 522.745 29.2286 519.319C17.4707 509.589 7.39179 498.622 6.18621 495.152C5.57889 493.404 4.98065 491.682 2.57343 486.437" stroke="#C6D77C" stroke-width="200" stroke-linecap="round"/>
<path d="M1260.64 321.14C1261.84 324.602 1265.43 332.68 1269.33 341.959C1276.56 359.167 1268.48 386.239 1263.64 395.594C1255.46 411.401 1237.59 392.411 1237.59 409.264C1237.59 422.698 1201.59 395.206 1201.59 403.159C1201.59 409.264 1195.12 413.275 1181.59 409.264C1173.44 406.848 1162.18 407.427 1153.68 403.159C1145.88 399.24 1135.23 392.639 1126.98 387.196C1118.75 381.77 1101.42 377.857 1091.59 374.264C1081.77 370.671 1080.12 363.636 1069.29 359.964C1059.68 356.705 1073.33 359.497 1012.09 359.964C992.777 360.112 950.272 373.297 950.272 365.808C950.272 354.599 927.724 375.972 915.811 380.22C904.519 384.245 893.511 389.227 878.723 392.052C856.632 396.272 847.046 397.955 837.151 400.15C828.379 402.096 820.332 404.722 799.761 410.214C789.467 412.962 752.608 414.906 726.942 410.592C714.794 408.55 707.927 404.429 694.789 400.219C684.589 396.95 671.735 393.81 661.754 391.316C649.165 388.169 635.48 383.786 624.083 381.886C613.984 380.202 582.643 380.365 561.782 382.367C548.51 383.64 539.44 387.305 530.417 389.463C515.925 392.929 500.521 395.937 486.034 400.496C472.429 404.778 462.79 404.59 452.31 406.172C440.683 407.928 432.582 411.365 391.076 412.195C370.627 412.604 348.685 402.572 335.739 398.35C324.487 394.681 318.136 387.793 309.354 384.122C300.022 380.22 288.947 381.174 280.464 378.949C256.022 372.538 214.445 380.333 202.22 384.864C189.511 389.574 177.23 388.385 167.973 394.022C159.169 399.383 149.423 399.812 140.135 403.118C129.289 406.978 111.778 412.481 98.0892 415.886C85.8881 418.921 75.1281 418.22 59.4434 419.868C45.6287 421.32 34.9188 418.745 30.2286 415.319C18.4707 405.589 8.39179 394.622 7.18621 391.152C6.57889 389.404 5.98065 387.682 3.57343 382.437" stroke="#9EAF50" stroke-width="200" stroke-linecap="round"/>
<path d="M1250.64 212.14C1251.84 215.602 1255.43 223.68 1259.33 232.96C1266.56 250.167 1258.48 277.239 1253.64 286.594C1245.46 302.402 1227.59 283.411 1227.59 300.264C1227.59 313.699 1211 321 1191.59 294.159C1188.01 289.211 1217.5 320.5 1171.59 300.264C1163.81 296.835 1153.5 295.419 1145 291.15C1137.2 287.232 1126.43 281.111 1116.98 278.196C1105 274.5 1091.42 268.857 1081.59 265.264C1071.77 261.671 1051.5 209.5 1059.29 250.964C1061.17 260.937 1066.24 256.341 1005 256.808C985.688 256.956 948.437 262.441 941.501 265.264C920.73 273.72 919.794 269.974 908.501 274C897.209 278.026 883.511 280.228 868.724 283.052C846.633 287.272 837.046 288.955 827.151 291.15C818.379 293.096 810.333 295.722 789.761 301.214C779.467 303.962 742.608 305.906 716.942 301.592C704.794 299.55 697.927 295.429 684.789 291.219C674.59 287.95 661.735 284.81 651.754 282.316C639.165 279.169 625.481 274.786 614.084 272.886C603.984 271.202 572.643 271.365 551.783 273.367C538.511 274.641 529.44 278.305 520.418 280.463C505.925 283.929 490.521 286.937 476.035 291.497C462.43 295.778 452.79 295.59 442.311 297.172C430.684 298.928 422.583 302.365 381.076 303.195C360.628 303.604 338.686 293.572 325.74 289.35C314.487 285.681 308.136 278.794 299.355 275.122C290.023 271.22 278.948 272.174 270.464 269.949C246.023 263.538 204.445 271.333 192.221 275.864C179.511 280.574 167.231 279.385 157.973 285.022C149.169 290.383 139.423 290.812 130.136 294.118C119.289 297.978 101.778 303.482 88.0896 306.886C75.8885 309.921 65.1285 309.22 49.4438 310.868C35.6291 312.32 24.9193 309.746 20.229 306.32C8.4711 296.589 -1.60778 285.623 -2.81336 282.153C-3.42068 280.404 -4.01892 278.682 -6.42614 273.437" stroke="#587911" stroke-width="200" stroke-linecap="round"/>
<path d="M1250.64 100.14C1251.84 103.602 1255.43 111.68 1259.33 120.96C1266.56 138.167 1258.48 165.239 1253.64 174.594C1245.46 190.402 1227.59 171.411 1227.59 188.264C1227.59 201.699 1211 209 1191.59 182.159C1188.01 177.211 1217.5 208.5 1171.59 188.264C1163.81 184.835 1153.5 183.419 1145 179.15C1137.2 175.232 1126.43 169.111 1116.98 166.196C1105 162.5 1091.42 156.857 1081.59 153.264C1071.77 149.671 1051.5 97.5001 1059.29 138.964C1061.16 148.937 1066.24 144.341 1005 144.808C985.687 144.956 948.437 150.441 941.501 153.264C920.729 161.72 919.793 157.974 908.501 162C897.209 166.026 883.511 168.228 868.723 171.052C846.632 175.272 837.046 176.955 827.151 179.15C818.379 181.096 810.332 183.722 789.761 189.214C779.466 191.962 742.607 193.906 716.942 189.592C704.794 187.55 697.927 183.429 684.789 179.219C674.589 175.95 661.735 172.81 651.754 170.316C639.165 167.169 625.48 162.786 614.083 160.886C603.983 159.202 572.642 159.365 551.782 161.367C538.51 162.641 529.439 166.305 520.417 168.463C505.924 171.929 490.521 174.937 476.034 179.497C462.429 183.778 452.79 183.59 442.31 185.172C430.683 186.928 422.582 190.365 381.075 191.195C360.627 191.604 338.685 181.572 325.739 177.35C314.487 173.681 308.136 166.794 299.354 163.122C290.022 159.22 278.947 160.174 270.464 157.949C246.022 151.538 204.445 159.333 192.22 163.864C179.51 168.574 167.23 167.385 157.973 173.022C149.169 178.383 139.423 178.812 130.135 182.118C119.289 185.978 101.778 191.482 88.0891 194.886C75.888 197.921 65.128 197.22 49.4433 198.868C35.6287 200.32 24.9188 197.746 20.2285 194.32C8.47061 184.589 -1.60827 173.623 -2.81384 170.153C-3.42116 168.404 -4.01941 166.682 -6.42663 161.437" stroke="#104C00" stroke-width="200" stroke-linecap="round"/>
</svg>
