<svg width="1296" height="1188" viewBox="0 0 1296 1188" fill="none" xmlns="http://www.w3.org/2000/svg">
<path d="M214.614 549.567C206.949 545.19 193.734 536.385 186.284 530.042C179.35 524.138 173.35 517.124 167.287 508.038C155.617 490.55 149.661 478.04 143.607 468.393C133.922 452.96 135.884 441.136 133.952 431.225C133.317 427.971 133.671 423.56 134.488 420.768C135.306 417.977 136.942 416.886 139.147 416.325C149.345 413.728 159.507 415.202 170.797 421.793C178.539 426.312 184.847 432.249 195.576 442.706C202.169 449.131 206.883 455.376 211.294 462.264C216.618 470.58 223.931 485.044 225.632 522.724C226.077 532.58 222.328 537.971 220.685 543.472C217.787 553.169 204.736 558.355 193.461 559.751C187.675 560.468 179.428 561.13 170.624 560.313C161.317 559.448 155.179 549.6 147.192 545.999C139.863 542.695 134.794 534.204 130.384 525.92C125.282 516.338 120.489 502.851 117.16 491.239C113.912 479.907 113.848 470.871 110.833 460.133C107.381 447.838 105.589 434.562 102.574 419.67C100.222 408.054 98.9809 397.097 103.912 386.615C106.071 382.025 111.073 378.893 115.467 375.316C123.395 368.863 139.651 376.085 152.337 380.503C172.852 387.649 185.342 399.178 193.395 407.479C199.517 413.789 204.669 420.686 209.914 429.771C214.208 437.209 220.098 443.812 224.781 450.701C231.009 459.861 236.617 469.681 241.3 477.131C247.435 486.891 254.226 498.854 259.199 509.608C263.56 519.041 263.081 531.33 258.687 542.646C256.498 548.281 251.517 551.203 249.048 554.498C246.033 557.794 223.088 559.479 190.604 558.116C179.379 556.753 178.834 554.027 176.62 546.263" stroke="#587911" stroke-width="200" stroke-linecap="round"/>
<path d="M440.322 100.25C437.051 103.722 429.55 115.633 426.23 126.901C423.844 134.998 422.472 145.082 421.76 178.43C421.406 195.045 462.184 106.49 461.69 126.901C461.433 137.527 426.195 242.349 433.244 249.621C438.959 255.517 449.862 13 486.5 181.5C488.151 189.091 459.949 294.709 461.69 287.278M461.69 287.278C483.798 126.901 476.421 312.671 476.96 304.988C496 33.5 483.072 308.25 483.798 308.25C495.334 308.25 470.637 290.256 461.69 287.278ZM461.69 287.278C454.829 284.994 443.17 294.304 435.183 283.604C427.688 273.565 422.952 261.892 417.552 253.422C409.703 241.113 408.852 227.025 405.553 216.753C402.855 208.354 402.254 201.048 399.913 189.847C394.867 165.701 403.184 156.156 404.834 146.93C407.345 132.889 408.824 124.731 412.574 117.983C415.846 114.257 420.09 110.246 424.312 106.76C426.209 105.248 427.605 104.261 429.043 103.243" stroke="#FDA202" stroke-width="200" stroke-linecap="round"/>
<path d="M825.404 316.649C824.314 316.649 819.936 316.649 813.61 315.831C805.091 314.73 801.749 303.467 793.77 291.094C788.647 283.149 787.972 273.204 787.138 263.549C785.925 249.517 787.939 232.997 790.706 221.434C793.103 211.415 796.76 200.52 799.238 191.138C801.669 181.932 807.2 171.348 812.998 157.29C816.601 148.555 819.887 140.49 823.736 133.04C825.876 128.897 828.146 125.045 830.616 122.022C833.085 119 837.496 117.331 844.071 115.679C862.865 110.957 871.063 123.905 877.142 129.687C883.575 135.806 887.615 142.605 891.191 152.797C894.49 162.197 895.874 174.52 897.807 189.378C901.294 216.187 893.165 229.561 890.662 240.356C888.608 249.216 879.95 255.496 873.334 264.854C867.699 272.824 858.475 275.88 850.216 278.647C845.822 279.746 841.394 280.852 833.185 281.678C827.155 281.959 817.343 281.959 807.233 281.959" stroke="#587911" stroke-width="200" stroke-linecap="round"/>
<path d="M1194.34 391C1189.96 393.181 1191.63 367.825 1181.15 373.07C1172.52 377.389 1163.55 385.434 1137.99 410.708C1125.85 422.706 1118.91 433.34 1110.12 446.274C1102.67 457.222 1095.79 468.029 1089.46 477.123C1078.7 492.592 1066.05 510.979 1062.19 521.708C1055.36 540.656 1068.76 552.838 1073.72 559.999C1080.37 569.618 1091.86 572.661 1101.24 575.989C1114.27 580.612 1136.99 575.469 1147.22 572.43C1154.93 570.141 1159.62 562.815 1166.77 554.829C1172.74 548.161 1176.14 539.689 1182.19 529.241C1189.38 516.827 1189.91 507.213 1192.12 498.391C1194.87 490.115 1197.08 464.99 1194.34 447.182C1193.78 444.969 1193.78 442.788 1190.47 437.238" stroke="#FDA202" stroke-width="200" stroke-linecap="round"/>
<path d="M468.577 776.464C474.045 771.558 439.727 740.172 464.191 701.963C470.076 692.772 483.428 724.528 488.945 714.865C496.529 701.581 394.65 805.898 404 793.5C419.428 773.043 531.895 649.069 536.578 641.347C544.719 627.922 557.202 612.728 564.924 603.634C575.132 591.613 599.513 572.231 607.5 567.259C615.654 562.183 614.456 568.655 632.066 567.259C638.18 566.774 642.572 566.425 646.966 568.068C656.57 571.661 662.923 583.984 671.472 590.914C679.638 597.534 686.611 608.234 693.5 614.313C701.541 621.409 708.615 629.709 720.195 642.371C727.129 649.953 745.948 681.248 760.402 701.03C765.682 708.256 775.219 723.801 784.354 737.091C790.433 745.934 806.011 763.414 815.749 776.464C822.934 786.093 826.494 793.247 845.97 813.863C855.159 823.589 861.713 830.151 869.7 835.123C876.91 839.611 888.639 848.85 899.707 856.589C909.728 863.596 921.71 872.538 933.554 879.163C948.977 887.789 955.871 894.575 962.214 899.82C968.231 904.794 972.952 912.184 986.134 931.148C995.633 944.813 998.292 956.224 1004.88 965.334C1009.8 972.134 1010.95 984.835 1011.52 1003.29C1011.83 1012.93 1001.63 1018.47 994.203 1024.81C986.592 1031.31 965.948 1036.64 949.619 1043.81C939.153 1048.4 926.236 1046.58 914.92 1044.94C905.127 1043.52 895.379 1040.54 884.914 1036.42C873.519 1031.93 866.735 1023.49 857.385 1016.06C839.416 1001.79 829.897 980.639 821.844 967.597C817.113 959.935 808.39 950.839 800.931 941.175C789.697 926.619 783.578 918.329 767.662 900.472C746.027 876.199 732.964 854.467 727.133 843.713C721.482 833.292 712.579 823.081 705.666 811.782C697.803 798.93 691.633 789.481 683.101 779.297C670.29 764.005 664.641 751.487 658.314 742.947C649.129 730.548 646.47 721.753 633.288 701.963C628.502 694.778 623.889 691.986 620.048 689.789C604.078 680.653 575.472 685.378 560.902 685.907C530.958 686.993 513.327 706.754 498.914 718.647C492.054 724.308 487.326 730.475 482.106 736.554C475.432 744.326 471.369 755.254 467.231 768.46C465.374 774.386 464.745 779.503 464.191 783.897C463.122 792.391 471.864 798.765 478.208 805.38C485.61 813.101 497.733 820.801 506.827 826.855C517.7 834.094 532.952 836.758 542.624 844.473C551.06 851.202 573.06 866.426 587.77 877.783C597.516 885.308 606.759 889.09 617.488 896.772C635.218 909.465 648.023 917.14 657.431 925.416C665.398 932.425 674.487 934.782 685.777 942.207C694.314 947.822 702.569 955.134 717.147 965.598C729.098 974.177 738.349 982.654 747.732 990.121C755.176 996.044 762.599 1000.3 771.957 1008.28C779.562 1014.77 790.648 1021.21 807.176 1033.87C816.836 1041.27 826.461 1046.02 833.358 1051.79C844.676 1061.25 862.175 1069.64 878.752 1076.57C890.198 1081.36 900.268 1081.27 908.206 1082.36C923.439 1084.46 955.128 1087.88 990.082 1087.06C1009.85 1086.6 1018.08 1079.09 1028.27 1072.77C1040.19 1065.37 1046.73 1049.39 1051.7 1036.17C1053.43 1031.55 1055.02 1006.08 1054.75 968.646C1054.59 947.9 1046.79 938.152 1036.89 920.287C1028.31 904.809 1020.36 896.855 1006.37 885.853C977.401 863.074 1054.75 925.563 1036.89 914C1021.66 904.14 891.208 770.588 878.752 759C856.274 738.087 756.264 627.36 747.732 615.277C739.032 602.955 835.448 731.796 818.02 708.282C809.866 697.28 801.22 687.063 789.104 671.114C781.766 661.456 776.442 653.463 765.151 637.523C759.15 629.049 752.754 620.987 745.039 612.166C737.694 603.767 730.189 592.905 722.466 586.826C713.093 579.448 687.094 552.896 678 551.5C658.71 548.539 656.877 544.567 646.966 546.5C632.335 549.353 610.723 581.275 599.68 584.315C588.162 587.485 572.168 595.581 561.141 602.197C550.66 608.812 468.79 691.474 449 718.647C444.54 725.602 466.438 722.092 464.191 726.585" stroke="#03497B" stroke-width="200" stroke-linecap="round"/>
<path d="M422.34 790.538C418.508 791.083 410.81 796.551 400.907 803.456C391.894 809.74 384.38 813.632 373.651 819.975C365.418 824.842 354.679 832.893 344.742 839.517C329.221 849.865 318.337 859.852 310.036 866.509C303.833 871.484 294.648 878.584 288.008 886.596C280.892 895.181 275.354 903.925 270.11 913.572C265.272 922.47 282.309 917.845 275.941 928.352C268.42 940.76 231.126 972.43 231.11 992.22C231.1 1003.62 269.256 1032.21 260.11 1029.44C187.363 1007.44 277.229 1043.76 288.008 1052.6C296.976 1059.95 262.114 1040.81 270.11 1045.22C280.73 1051.08 332.543 1068.06 341.637 1069.97C357.238 1073.26 382.596 1069.74 396.967 1066.69C410.54 1063.8 428.353 1060.36 440.189 1054.04C450.057 1048.77 461.92 1048.8 473.781 1045.22C486.008 1041.53 500.442 1033.58 513.443 1029.44C526.593 1025.25 556.937 1012.18 587.778 1008C602.955 1005.94 642.051 997.86 658.818 998.677C681.145 999.766 688.313 971.863 714.743 970.5C723.82 970.032 659.363 981.324 658.818 979.102M658.818 979.102C656.878 971.193 719.715 998.744 714.743 987.428C710.674 978.168 695.036 960.816 682.267 950.516C674.842 944.528 652.681 921.765 629.993 903.462C618.299 894.029 609.038 888.033 599.68 881.417C591.659 875.747 584.26 869.862 577.099 865.163C568.427 859.471 558.391 858.828 542.442 855.251C521.458 850.546 491.225 854.401 477.456 858.249C466.188 861.399 456.535 865.402 442.766 869.813C431.922 873.286 424.587 880.798 414.122 888.248C402.664 896.405 392.639 903.925 385.206 910.549C382.733 912.752 379.457 916.016 379.953 917.701C384.293 932.458 411.289 908.401 417.343 902.636C422.338 897.88 420.689 890.775 420.143 885.291C418.712 870.886 405.887 857.275 396.488 843.44C389.947 833.812 384.908 828.548 382.166 826.888C366.92 817.658 355.736 860.463 351.614 858.563C329.899 848.554 399.405 922.385 404.344 913.572C414.795 894.923 205 1103.5 224 956.794C225.577 944.617 420.353 738 430 738C442.766 738 445.951 744.326 454.5 744.582C464.351 744.877 454.784 748.117 467.446 758.285C475.859 765.04 483.428 769.592 490.316 775.374C497.989 781.814 506.554 786.111 513.443 791.893C520.763 798.037 529.119 805.901 535.198 814.466C539.989 821.216 547.852 826.285 555.566 834.834C561.262 841.146 564.932 848.322 569.616 854.937C574.936 862.454 580.89 869.796 587.778 875.859C598.901 885.648 601.836 898.969 613.358 915.736C623.819 930.959 633.718 944.066 644.488 956.794C650.521 963.923 654.135 972.214 658.818 979.102ZM658.818 979.102C661.833 983.216 665.153 988.188 668.721 993.135C670.654 995.357 672.835 996.993 676.733 998.677" stroke="#FF7400" stroke-width="200" stroke-linecap="round"/>
</svg>
