<?xml version="1.0" standalone="no"?>
<!DOCTYPE svg PUBLIC "-//W3C//DTD SVG 20010904//EN"
 "http://www.w3.org/TR/2001/REC-SVG-20010904/DTD/svg10.dtd">
<svg version="1.0" xmlns="http://www.w3.org/2000/svg"
 width="550.000000pt" height="600.000000pt" viewBox="0 0 550.000000 600.000000"
 preserveAspectRatio="xMidYMid meet">

<g transform="translate(0.000000,600.000000) scale(0.100000,-0.100000)"
fill="#000000" stroke="none">
<path d="M1655 5514 c-157 -23 -279 -65 -376 -130 -84 -56 -115 -94 -139 -174
-10 -34 -26 -72 -34 -86 -25 -37 -103 -71 -279 -119 -237 -66 -255 -76 -243
-138 7 -38 93 -192 139 -249 64 -79 166 -126 292 -134 43 -2 97 -9 118 -15 28
-7 66 -7 133 2 81 10 97 9 118 -4 31 -21 46 -84 46 -194 0 -105 -16 -182 -69
-346 -60 -186 -75 -275 -74 -467 2 -525 158 -1036 379 -1240 l49 -45 3 34 c3
34 -22 306 -34 366 -4 17 -3 27 0 24 11 -10 44 -203 62 -366 29 -255 15 -859
-26 -1171 -10 -75 -103 -358 -124 -378 -6 -6 -32 -18 -57 -28 -25 -9 -58 -29
-73 -45 -28 -29 -58 -99 -49 -113 2 -5 86 -8 187 -8 162 0 185 2 199 18 8 9
34 98 57 197 40 173 48 193 105 271 11 15 20 75 31 200 21 252 83 667 110 744
3 9 14 -1 31 -30 44 -74 197 -261 205 -250 2 3 20 39 41 81 60 122 160 221
286 284 78 40 83 28 6 -13 -134 -71 -260 -225 -308 -377 -29 -92 -31 -253 -3
-335 65 -196 203 -355 390 -451 45 -23 83 -43 85 -45 17 -15 -45 -20 -292 -24
-266 -5 -284 -6 -323 -27 -73 -39 -121 -114 -126 -197 l-3 -41 550 -8 c761
-10 1018 -7 1070 16 54 24 103 73 127 124 l19 42 48 -34 c71 -51 187 -102 286
-126 107 -25 272 -27 368 -5 133 31 252 107 318 202 28 41 27 63 -2 28 -14
-17 -82 -54 -99 -54 -6 0 0 15 13 32 41 54 75 130 86 193 16 84 14 86 -18 30
-27 -48 -58 -83 -64 -74 -2 2 -8 34 -14 72 -28 167 -145 308 -284 342 -25 6
-24 4 17 -40 126 -136 104 -327 -48 -414 -64 -37 -132 -47 -201 -31 -111 27
-176 82 -201 173 -8 31 -17 125 -20 233 -10 319 -68 531 -256 935 -226 486
-492 911 -789 1264 -113 134 -142 182 -182 305 -67 202 -114 283 -251 428
-133 142 -155 199 -203 535 -42 289 -70 399 -135 527 -75 146 -200 268 -314
304 -51 17 -204 28 -261 20z m8 -269 c-22 -118 -22 -381 0 -470 22 -87 60
-155 88 -155 12 0 63 43 129 110 213 214 265 295 264 408 0 44 2 58 9 47 5 -9
9 -44 9 -77 0 -90 -39 -160 -171 -305 -113 -123 -222 -223 -246 -223 -22 0
-72 66 -94 124 -53 142 -48 414 10 594 17 53 18 34 2 -53z"/>
<path d="M1414 2555 c3 -16 18 -106 33 -200 l28 -170 -1 -500 c-2 -603 -9
-695 -60 -831 -21 -55 -46 -111 -56 -127 -12 -16 -53 -43 -103 -67 -71 -34
-88 -47 -110 -83 -14 -24 -25 -53 -25 -65 0 -21 3 -22 133 -22 l133 0 12 44
c16 61 57 105 128 137 l61 28 51 153 c58 172 62 198 88 608 10 164 15 328 12
461 l-5 206 -78 74 c-90 85 -159 185 -205 296 -36 88 -45 102 -36 58z"/>
</g>
</svg>
