<svg width="1280" height="625" viewBox="0 0 1280 625" fill="none" xmlns="http://www.w3.org/2000/svg">
<path d="M1269.64 425.14C1270.84 428.602 1274.43 436.68 1278.33 445.959C1285.56 463.167 1277.48 490.239 1272.64 499.594C1264.46 515.401 1246.59 496.411 1246.59 513.264C1246.59 526.698 1210.59 499.206 1210.59 507.159C1210.59 513.264 1204.12 517.275 1190.59 513.264C1182.44 510.848 1171.18 511.427 1162.68 507.159C1154.88 503.24 1144.23 496.639 1135.98 491.196C1127.75 485.77 1110.42 481.857 1100.59 478.264C1090.77 474.671 1089.12 467.636 1078.29 463.964C1068.68 460.705 1082.33 463.497 1021.09 463.964C1001.78 464.112 959.272 477.297 959.272 469.808C959.272 458.599 936.724 479.972 924.811 484.22C913.519 488.245 902.511 493.227 887.723 496.052C865.632 500.272 856.046 501.955 846.151 504.15C837.379 506.096 829.332 508.722 808.761 514.214C798.467 516.962 761.608 518.906 735.942 514.592C723.794 512.55 716.927 508.429 703.789 504.219C693.589 500.95 680.735 497.81 670.754 495.316C658.165 492.169 644.48 487.786 633.083 485.886C622.984 484.202 591.643 484.365 570.782 486.367C557.51 487.64 548.44 491.305 539.417 493.463C524.925 496.929 509.521 499.937 495.034 504.496C481.429 508.778 471.79 508.59 461.31 510.172C449.683 511.928 441.582 515.365 400.076 516.195C379.627 516.604 357.685 506.572 344.739 502.35C333.487 498.681 327.136 491.793 318.354 488.122C309.022 484.22 297.947 485.174 289.464 482.949C265.022 476.538 223.445 484.333 211.22 488.864C198.511 493.574 186.23 492.385 176.973 498.022C168.169 503.383 158.423 503.812 149.135 507.118C138.289 510.978 120.778 516.481 107.089 519.886C94.8881 522.921 84.1281 522.22 68.4434 523.868C54.6287 525.32 43.9188 522.745 39.2286 519.319C27.4707 509.589 17.3918 498.622 16.1862 495.152C15.5789 493.404 14.9806 491.682 12.5734 486.437" stroke="#FFB97C" stroke-width="200" stroke-linecap="round"/>
<path d="M1270.64 321.14C1271.84 324.602 1275.43 332.68 1279.33 341.959C1286.56 359.167 1278.48 386.239 1273.64 395.594C1265.46 411.401 1247.59 392.411 1247.59 409.264C1247.59 422.698 1211.59 395.206 1211.59 403.159C1211.59 409.264 1205.12 413.275 1191.59 409.264C1183.44 406.848 1172.18 407.427 1163.68 403.159C1155.88 399.24 1145.23 392.639 1136.98 387.196C1128.75 381.77 1111.42 377.857 1101.59 374.264C1091.77 370.671 1090.12 363.636 1079.29 359.964C1069.68 356.705 1083.33 359.497 1022.09 359.964C1002.78 360.112 960.272 373.297 960.272 365.808C960.272 354.599 937.724 375.972 925.811 380.22C914.519 384.245 903.511 389.227 888.723 392.052C866.632 396.272 857.046 397.955 847.151 400.15C838.379 402.096 830.332 404.722 809.761 410.214C799.467 412.962 762.608 414.906 736.942 410.592C724.794 408.55 717.927 404.429 704.789 400.219C694.589 396.95 681.735 393.81 671.754 391.316C659.165 388.169 645.48 383.786 634.083 381.886C623.984 380.202 592.643 380.365 571.782 382.367C558.51 383.64 549.44 387.305 540.417 389.463C525.925 392.929 510.521 395.937 496.034 400.496C482.429 404.778 472.79 404.59 462.31 406.172C450.683 407.928 442.582 411.365 401.076 412.195C380.627 412.604 358.685 402.572 345.739 398.35C334.487 394.681 328.136 387.793 319.354 384.122C310.022 380.22 298.947 381.174 290.464 378.949C266.022 372.538 224.445 380.333 212.22 384.864C199.511 389.574 187.23 388.385 177.973 394.022C169.169 399.383 159.423 399.812 150.135 403.118C139.289 406.978 121.778 412.481 108.089 415.886C95.8881 418.921 85.1281 418.22 69.4434 419.868C55.6287 421.32 44.9188 418.745 40.2286 415.319C28.4707 405.589 18.3918 394.622 17.1862 391.152C16.5789 389.404 15.9806 387.682 13.5734 382.437" stroke="#FFA557" stroke-width="200" stroke-linecap="round"/>
<path d="M1260.64 212.14C1261.84 215.601 1265.43 223.679 1269.33 232.959C1276.56 250.166 1268.48 277.239 1263.64 286.594C1255.46 302.401 1237.59 283.41 1237.59 300.264C1237.59 313.698 1221 321 1201.59 294.158C1198.01 289.211 1227.5 320.5 1181.59 300.263C1173.81 296.835 1163.5 295.419 1155 291.15C1147.2 287.232 1136.43 281.111 1126.98 278.196C1115 274.5 1101.42 268.856 1091.59 265.264C1081.77 261.671 1061.5 209.5 1069.29 250.964C1071.17 260.937 1076.24 256.34 1015 256.808C995.688 256.955 958.437 262.44 951.501 265.264C930.73 273.719 929.794 269.974 918.501 274C907.209 278.025 893.511 280.227 878.724 283.052C856.633 287.272 847.046 288.955 837.151 291.15C828.379 293.096 820.333 295.721 799.761 301.213C789.467 303.962 752.608 305.905 726.942 301.591C714.794 299.549 707.927 295.429 694.789 291.218C684.59 287.95 671.735 284.81 661.754 282.315C649.165 279.169 635.481 274.785 624.084 272.885C613.984 271.202 582.643 271.365 561.783 273.366C548.511 274.64 539.44 278.304 530.418 280.462C515.925 283.929 500.521 286.937 486.035 291.496C472.43 295.778 462.79 295.589 452.311 297.172C440.684 298.927 432.583 302.365 391.076 303.195C370.628 303.604 348.686 293.571 335.74 289.35C324.487 285.681 318.136 278.793 309.355 275.122C300.023 271.22 288.948 272.174 280.464 269.949C256.023 263.538 214.445 271.333 202.221 275.863C189.511 280.574 177.231 279.384 167.973 285.022C159.169 290.383 149.423 290.812 140.136 294.117C129.289 297.978 111.778 303.481 98.0896 306.886C85.8885 309.921 75.1285 309.22 59.4438 310.868C45.6291 312.32 34.9193 309.745 30.229 306.319C18.4711 296.588 8.39222 285.622 7.18664 282.152C6.57932 280.404 5.98108 278.682 3.57386 273.436" stroke="#FF8D29" stroke-width="200" stroke-linecap="round"/>
<path d="M1260.64 100.14C1261.84 103.601 1265.43 111.679 1269.33 120.959C1276.56 138.166 1268.48 165.239 1263.64 174.594C1255.46 190.401 1237.59 171.41 1237.59 188.264C1237.59 201.698 1221 209 1201.59 182.158C1198.01 177.211 1227.5 208.5 1181.59 188.263C1173.81 184.835 1163.5 183.419 1155 179.15C1147.2 175.232 1136.43 169.111 1126.98 166.196C1115 162.5 1101.42 156.856 1091.59 153.264C1081.77 149.671 1061.5 97.4996 1069.29 138.964C1071.16 148.937 1076.24 144.34 1015 144.808C995.687 144.955 958.437 150.44 951.501 153.264C930.729 161.719 929.793 157.974 918.501 162C907.209 166.025 893.511 168.227 878.723 171.052C856.632 175.272 847.046 176.955 837.151 179.15C828.379 181.096 820.332 183.721 799.761 189.213C789.466 191.962 752.607 193.905 726.942 189.591C714.794 187.549 707.927 183.429 694.789 179.218C684.589 175.95 671.735 172.81 661.754 170.315C649.165 167.169 635.48 162.785 624.083 160.885C613.983 159.202 582.642 159.365 561.782 161.366C548.51 162.64 539.439 166.304 530.417 168.462C515.924 171.929 500.521 174.937 486.034 179.496C472.429 183.778 462.79 183.589 452.31 185.172C440.683 186.927 432.582 190.365 391.075 191.195C370.627 191.604 348.685 181.571 335.739 177.35C324.487 173.681 318.136 166.793 309.354 163.122C300.022 159.22 288.947 160.174 280.464 157.949C256.022 151.538 214.445 159.333 202.22 163.863C189.51 168.574 177.23 167.384 167.973 173.022C159.169 178.383 149.423 178.812 140.135 182.117C129.289 185.978 111.778 191.481 98.0891 194.886C85.888 197.921 75.128 197.22 59.4433 198.868C45.6287 200.32 34.9188 197.745 30.2285 194.319C18.4706 184.588 8.39173 173.622 7.18616 170.152C6.57884 168.404 5.98059 166.682 3.57337 161.436" stroke="#FF7700" stroke-width="200" stroke-linecap="round"/>
</svg>
